<?xml version="1.0" encoding="utf-8"?>
<svg width="208px" height="175px" viewbox="0 0 208 175" version="1.1" xmlns:xlink="http://www.w3.org/1999/xlink" xmlns="http://www.w3.org/2000/svg">
  <g id="breakfast-(1)-copy">
    <path d="M205.469 1.17974C203.881 0.00515338 201.838 -0.31443 199.979 0.32057C187.152 4.70598 176.542 13.2418 169.369 24.1851C153.537 8.72598 132.372 0.000153383 110.094 0.000153383C92.0343 0.000153383 74.9125 5.77223 60.9375 15.7135L60.9375 6.25015C60.9375 2.79848 58.2091 0.000153383 54.8438 0.000153383C51.4784 0.000153383 48.75 2.79848 48.75 6.25015L48.75 43.7501C48.75 47.1964 46.0163 50.0001 42.6563 50.0001L36.5625 50.0001L36.5625 6.25015C36.5625 2.79848 33.8341 0.000153383 30.4688 0.000153383C27.1034 0.000153383 24.375 2.79848 24.375 6.25015L24.375 50.0001L18.2813 50.0001C14.9212 50.0001 12.1875 47.1964 12.1875 43.7501L12.1875 6.25015C12.1875 2.79848 9.45913 0.000153383 6.09375 0.000153383C2.72837 0.000153383 0 2.79848 0 6.25015L0 43.7501C0 54.0889 8.20097 62.5001 18.2813 62.5001L24.375 62.5001L24.375 87.5001L18.2813 87.5001C14.9159 87.5001 12.1875 90.2984 12.1875 93.7501L12.1875 156.25C12.1875 166.589 20.3885 175 30.4688 175C40.549 175 48.75 166.589 48.75 156.25L48.75 148.674C65.3798 165.988 87.6777 175 110.094 175C132.504 175 154.804 165.992 171.438 148.674L171.438 156.25C171.438 166.589 179.638 175 189.719 175C199.799 175 208 166.589 208 156.25L208 6.25015C208 4.24098 207.058 2.35473 205.469 1.17974ZM36.5625 156.25C36.5625 159.696 33.8288 162.5 30.4688 162.5C27.1087 162.5 24.375 159.696 24.375 156.25L24.375 100C28.7824 100 32.2075 100 36.5625 100L36.5625 156.25ZM171.438 128.958C157.976 149.689 134.637 162.5 110.094 162.5C85.551 162.5 62.2119 149.689 48.75 128.958L48.75 93.7501C48.75 90.2984 46.0216 87.5001 42.6563 87.5001L36.5625 87.5001L36.5625 62.5001L42.6563 62.5001C52.7365 62.5001 60.9375 54.0889 60.9375 43.7501L60.9375 31.608C74.2406 19.4381 92.0063 12.5001 110.094 12.5001C130.406 12.5001 149.632 20.9314 163.43 35.7568C160.719 42.7776 159.25 50.3914 159.25 58.2784L159.25 106.25C159.25 109.702 161.978 112.5 165.344 112.5L171.438 112.5L171.438 128.958L171.438 128.958ZM195.813 156.25C195.813 159.696 193.079 162.5 189.719 162.5C186.359 162.5 183.625 159.696 183.625 156.25L183.625 112.5L195.813 112.5L195.813 156.25ZM195.813 100L171.438 100L171.438 58.2784C171.438 40.628 180.764 24.3422 195.813 15.7901L195.813 100Z" id="Shape" fill="#FFFFFF" stroke="none" />
    <path d="M85.2262 78.2764C86.1703 73.1974 86.251 67.9758 85.4654 62.7563C83.7708 51.4939 77.719 41.4474 69.2141 34.6294C79.1666 29.3701 85.9999 18.6725 85.9999 6.34975C85.9999 2.843 83.2489 0 79.8556 0L67.567 0C59.309 0 51.8072 3.39077 46.281 8.88838C43.011 3.55247 37.2517 0 30.7011 0C20.5371 0 12.2681 8.5455 12.2681 19.0493C12.2681 24.7225 14.6832 29.8214 18.5034 33.3142C16.2185 34.9469 14.0705 36.8171 12.0985 38.9198C2.04562 49.6411 -2.09729 64.8957 1.01501 79.7258C4.19203 94.8606 15.6864 107.656 30.2992 112.323C35.9323 114.122 41.0424 117.019 45.4872 120.934C61.31 134.868 85.9999 123.279 85.9999 101.596C85.9999 95.4245 83.0335 90.0725 85.2262 78.2764ZM67.567 12.6995L72.6586 12.6995C70.1226 20.091 63.2889 25.399 55.2783 25.399L50.1868 25.399C52.7227 18.0075 59.5564 12.6995 67.567 12.6995ZM30.7011 12.6995C34.0891 12.6995 36.8454 15.548 36.8454 19.0493C36.8454 22.5505 34.0891 25.399 30.7011 25.399C27.3131 25.399 24.5568 22.5505 24.5568 19.0493C24.5568 15.548 27.3131 12.6995 30.7011 12.6995ZM53.4584 111.268C47.736 106.228 41.1653 102.501 33.9285 100.189C23.4827 96.8532 15.2776 87.7637 13.0251 77.0335C10.7525 66.2059 13.6313 55.5349 20.9242 47.7569C26.8187 41.4702 34.6093 38.1006 42.9172 38.0947C42.9418 38.0947 42.9651 38.0985 42.9897 38.0985L43.1212 38.0985C59.1022 38.1925 71.1794 50.4606 73.323 64.7078C73.8907 68.4804 73.835 72.2394 73.1583 75.8804C70.5941 89.6737 73.7113 98.1257 73.7113 101.596C73.7113 112.452 61.3559 118.223 53.4584 111.268Z" transform="translate(60 29)" id="Shape" fill="#02B46C" stroke="none" />
    <path d="M16.5 0C7.4019 0 0 7.4019 0 16.5C0 25.5981 7.4019 33 16.5 33C25.5981 33 33 25.5981 33 16.5C33 7.4019 25.5981 0 16.5 0ZM16.5 22C13.4673 22 11 19.5327 11 16.5C11 13.4673 13.4673 11 16.5 11C19.5327 11 22 13.4673 22 16.5C22 19.5327 19.5327 22 16.5 22Z" transform="translate(86 81)" id="Shape" fill="#02B46C" stroke="none" />
  </g>
</svg>