<?xml version="1.0" encoding="utf-8"?>
<!-- Generator: Adobe Illustrator 22.0.0, SVG Export Plug-In . SVG Version: 6.00 Build 0)  -->
<svg version="1.1" id="Layer_1" xmlns="http://www.w3.org/2000/svg" xmlns:xlink="http://www.w3.org/1999/xlink" x="0px" y="0px"
	 viewBox="0 0 700 700" style="enable-background:new 0 0 700 700;" xml:space="preserve">
<style type="text/css">
	.st0{fill:#FFFFFF;}
	.st1{fill:#02B46C;}
</style>
<g id="calendar-2-copy">
	<path id="Oval" class="st0" d="M525,315.5c17.3,0,31.3-14,31.3-31.3c0-17.3-14-31.3-31.3-31.3c-17.3,0-31.3,14-31.3,31.3
		C493.7,301.4,507.7,315.5,525,315.5z"/>
	<path id="Path" class="st0" d="M590.6,62.8h-35.5V36.3c0-14.7-12.2-26.5-27.3-26.5c-15.1,0-27.3,11.9-27.3,26.5v26.5H376V36.3
		c0-14.7-12.2-26.5-27.3-26.5c-15.1,0-27.3,11.9-27.3,26.5v26.5h-123V36.3c0-14.7-12.2-26.5-27.3-26.5c-15.1,0-27.3,11.9-27.3,26.5
		v26.5h-34.2C49.1,62.8,0,110.5,0,169v414.1c0,58.5,49.1,106.2,109.4,106.2h209.2c15.1,0,27.3-11.9,27.3-26.5
		c0-14.7-12.2-26.5-27.3-26.5H109.4c-30.2,0-54.7-23.8-54.7-53.1V169c0-29.3,24.5-53.1,54.7-53.1h34.2v26.5
		c0,14.7,12.2,26.5,27.3,26.5c15.1,0,27.3-11.9,27.3-26.5v-26.5h123v26.5c0,14.7,12.2,26.5,27.3,26.5c15.1,0,27.3-11.9,27.3-26.5
		v-26.5h124.4v26.5c0,14.7,12.2,26.5,27.3,26.5c15.1,0,27.3-11.9,27.3-26.5v-26.5h35.5c30.2,0,54.7,23.8,54.7,53.1v151.3
		c0,14.7,12.2,26.5,27.3,26.5c15.1,0,27.3-11.9,27.3-26.5V169C700,110.5,650.9,62.8,590.6,62.8z"/>
	<path id="Shape" class="st1" d="M530.9,367.3c-92,0-166.9,72.2-166.9,161c0,88.8,74.9,161,166.9,161c92,0,166.9-72.2,166.9-161
		C697.8,439.5,623,367.3,530.9,367.3z M530.9,636c-61.6,0-111.7-48.3-111.7-107.7c0-59.4,50.1-107.7,111.7-107.7
		c61.6,0,111.7,48.3,111.7,107.7C642.7,587.7,592.5,636,530.9,636z"/>
	<path id="Path_1_" class="st1" d="M557.5,507.4h-13.1v-31.4c0-16.5-13-29.9-29.1-29.9s-29.1,13.4-29.1,29.9v61.2
		c0,16.5,13,29.9,29.1,29.9h42.2c16.1,0,29.1-13.4,29.1-29.9S573.5,507.4,557.5,507.4z"/>
	<path id="Oval_1_" class="st0" d="M405.1,315.5c17.3,0,31.3-14,31.3-31.3c0-17.3-14-31.3-31.3-31.3c-17.3,0-31.3,14-31.3,31.3
		C373.8,301.4,387.8,315.5,405.1,315.5z"/>
	<path id="Oval_2_" class="st0" d="M290.6,436.5c17.3,0,31.3-14,31.3-31.3c0-17.3-14-31.3-31.3-31.3c-17.3,0-31.3,14-31.3,31.3
		C259.3,422.4,273.3,436.5,290.6,436.5z"/>
	<path id="Oval_3_" class="st0" d="M173.9,315.5c17.3,0,31.3-14,31.3-31.3c0-17.3-14-31.3-31.3-31.3s-31.3,14-31.3,31.3
		C142.6,301.4,156.6,315.5,173.9,315.5z"/>
	<path id="Oval_4_" class="st0" d="M173.9,436.5c17.3,0,31.3-14,31.3-31.3c0-17.3-14-31.3-31.3-31.3s-31.3,14-31.3,31.3
		C142.6,422.4,156.6,436.5,173.9,436.5z"/>
	<path id="Oval_5_" class="st0" d="M173.9,546.6c17.3,0,31.3-14,31.3-31.3c0-17.3-14-31.3-31.3-31.3s-31.3,14-31.3,31.3
		C142.6,532.6,156.6,546.6,173.9,546.6z"/>
	<path id="Oval_6_" class="st0" d="M290.6,546.6c17.3,0,31.3-14,31.3-31.3c0-17.3-14-31.3-31.3-31.3c-17.3,0-31.3,14-31.3,31.3
		C259.3,532.6,273.3,546.6,290.6,546.6z"/>
	<path id="Oval_7_" class="st0" d="M290.6,315.5c17.3,0,31.3-14,31.3-31.3c0-17.3-14-31.3-31.3-31.3c-17.3,0-31.3,14-31.3,31.3
		C259.3,301.4,273.3,315.5,290.6,315.5z"/>
</g>
</svg>
