<?xml version="1.0" encoding="utf-8"?>
<svg width="167px" height="162px" viewbox="0 0 167 162" version="1.1" xmlns:xlink="http://www.w3.org/1999/xlink" xmlns="http://www.w3.org/2000/svg">
  <g id="calendar-2-copy">
    <path d="M7.5 15C11.6421 15 15 11.6421 15 7.5C15 3.35786 11.6421 0 7.5 0C3.35786 0 0 3.35786 0 7.5C0 11.6421 3.35786 15 7.5 15Z" transform="translate(118 58)" id="Oval" fill="#FFFFFF" stroke="none" />
    <path d="M140.906 12.6563L132.426 12.6563L132.426 6.32813C132.426 2.8331 129.505 0 125.902 0C122.299 0 119.379 2.8331 119.379 6.32813L119.379 12.6563L89.6973 12.6563L89.6973 6.32813C89.6973 2.8331 86.7767 0 83.1738 0C79.5709 0 76.6504 2.8331 76.6504 6.32813L76.6504 12.6563L47.2949 12.6563L47.2949 6.32813C47.2949 2.8331 44.3744 0 40.7715 0C37.1686 0 34.248 2.8331 34.248 6.32813L34.248 12.6563L26.0938 12.6563C11.7057 12.6563 0 24.0114 0 37.9688L0 136.688C0 150.645 11.7057 162 26.0938 162L75.998 162C79.6009 162 82.5215 159.167 82.5215 155.672C82.5215 152.177 79.6009 149.344 75.998 149.344L26.0938 149.344C18.8997 149.344 13.0469 143.666 13.0469 136.688L13.0469 37.9688C13.0469 30.9901 18.8997 25.3125 26.0938 25.3125L34.248 25.3125L34.248 31.6406C34.248 35.1356 37.1686 37.9688 40.7715 37.9688C44.3744 37.9688 47.2949 35.1356 47.2949 31.6406L47.2949 25.3125L76.6504 25.3125L76.6504 31.6406C76.6504 35.1356 79.5709 37.9688 83.1738 37.9688C86.7767 37.9688 89.6973 35.1356 89.6973 31.6406L89.6973 25.3125L119.379 25.3125L119.379 31.6406C119.379 35.1356 122.299 37.9688 125.902 37.9688C129.505 37.9688 132.426 35.1356 132.426 31.6406L132.426 25.3125L140.906 25.3125C148.1 25.3125 153.953 30.9901 153.953 37.9688L153.953 74.0391C153.953 77.5341 156.874 80.3672 160.477 80.3672C164.079 80.3672 167 77.5341 167 74.0391L167 37.9688C167 24.0114 155.294 12.6563 140.906 12.6563Z" id="Path" fill="#FFFFFF" stroke="none" />
    <path d="M40 0C17.9438 0 0 17.2709 0 38.5C0 59.7291 17.9438 77 40 77C62.0562 77 80 59.7291 80 38.5C80 17.2709 62.0562 0 40 0ZM40 64.2727C25.2354 64.2727 13.2231 52.7113 13.2231 38.5C13.2231 24.2887 25.2354 12.7273 40 12.7273C54.7646 12.7273 66.7769 24.2887 66.7769 38.5C66.7769 52.7113 54.7646 64.2727 40 64.2727Z" transform="translate(87 85)" id="Shape" fill="#02B46C" stroke="none" />
    <path d="M17.0435 14.679L13.913 14.679L13.913 7.16049C13.913 3.20575 10.7986 0 6.95652 0C3.11443 0 0 3.20575 0 7.16049L0 21.8395C0 25.7942 3.11443 29 6.95652 29L17.0435 29C20.8856 29 24 25.7942 24 21.8395C24 17.8848 20.8856 14.679 17.0435 14.679Z" transform="translate(116 104)" id="Path" fill="#02B46C" stroke="none" />
    <path d="M7.5 15C11.6421 15 15 11.6421 15 7.5C15 3.35786 11.6421 0 7.5 0C3.35786 0 0 3.35786 0 7.5C0 11.6421 3.35786 15 7.5 15Z" transform="translate(89 58)" id="Oval" fill="#FFFFFF" stroke="none" />
    <path d="M7.5 15C11.6421 15 15 11.6421 15 7.5C15 3.35786 11.6421 0 7.5 0C3.35786 0 0 3.35786 0 7.5C0 11.6421 3.35786 15 7.5 15Z" transform="translate(62 87)" id="Oval" fill="#FFFFFF" stroke="none" />
    <path d="M7.5 15C11.6421 15 15 11.6421 15 7.5C15 3.35786 11.6421 0 7.5 0C3.35786 0 0 3.35786 0 7.5C0 11.6421 3.35786 15 7.5 15Z" transform="translate(34 58)" id="Oval" fill="#FFFFFF" stroke="none" />
    <path d="M7.5 15C11.6421 15 15 11.6421 15 7.5C15 3.35786 11.6421 0 7.5 0C3.35786 0 0 3.35786 0 7.5C0 11.6421 3.35786 15 7.5 15Z" transform="translate(34 87)" id="Oval" fill="#FFFFFF" stroke="none" />
    <path d="M7.5 15C11.6421 15 15 11.6421 15 7.5C15 3.35786 11.6421 0 7.5 0C3.35786 0 0 3.35786 0 7.5C0 11.6421 3.35786 15 7.5 15Z" transform="translate(34 113)" id="Oval" fill="#FFFFFF" stroke="none" />
    <path d="M7.5 15C11.6421 15 15 11.6421 15 7.5C15 3.35786 11.6421 0 7.5 0C3.35786 0 0 3.35786 0 7.5C0 11.6421 3.35786 15 7.5 15Z" transform="translate(62 113)" id="Oval" fill="#FFFFFF" stroke="none" />
    <path d="M7.5 15C11.6421 15 15 11.6421 15 7.5C15 3.35786 11.6421 0 7.5 0C3.35786 0 0 3.35786 0 7.5C0 11.6421 3.35786 15 7.5 15Z" transform="translate(62 58)" id="Oval" fill="#FFFFFF" stroke="none" />
  </g>
</svg>