<?xml version="1.0" encoding="utf-8"?>
<!-- Generator: Adobe Illustrator 22.0.0, SVG Export Plug-In . SVG Version: 6.00 Build 0)  -->
<svg version="1.1" id="Layer_1" xmlns="http://www.w3.org/2000/svg" xmlns:xlink="http://www.w3.org/1999/xlink" x="0px" y="0px"
	 viewBox="0 0 700 700" style="enable-background:new 0 0 700 700;" xml:space="preserve">
<style type="text/css">
	.st0{fill:#FFFFFF;}
	.st1{fill:#02B46C;}
</style>
<g id="breakfast-_x28_1_x29_-copy">
	<path id="Shape" class="st0" d="M687.6,62.9c-5.3-3.9-12.1-5-18.2-2.9c-42.6,14.6-77.9,42.9-101.7,79.2C515.1,88,444.8,59,370.7,59
		c-60,0-116.9,19.2-163.3,52.2V79.8c0-11.5-9.1-20.7-20.2-20.7C176,59,167,68.3,167,79.8v124.5c0,11.4-9.1,20.8-20.2,20.8h-20.2
		V79.8c0-11.5-9.1-20.7-20.2-20.7C95,59,86,68.3,86,79.8V225H65.7c-11.2,0-20.2-9.3-20.2-20.8V79.8c0-11.5-9.1-20.7-20.2-20.7
		C14.1,59,5,68.3,5,79.8v124.5c0,34.3,27.2,62.3,60.7,62.3H86v83H65.7c-11.2,0-20.2,9.3-20.2,20.8v207.5c0,34.3,27.2,62.3,60.7,62.3
		c33.5,0,60.7-27.9,60.7-62.3v-25.2c55.2,57.5,129.3,87.4,203.8,87.4c74.4,0,148.5-29.9,203.8-87.4v25.2c0,34.3,27.2,62.3,60.7,62.3
		c33.5,0,60.7-27.9,60.7-62.3v-498C696,73.1,692.9,66.8,687.6,62.9z M126.5,577.8c0,11.4-9.1,20.8-20.2,20.8
		c-11.2,0-20.2-9.3-20.2-20.8V391c14.6,0,26,0,40.5,0V577.8z M574.5,487.1C529.8,556,452.3,598.5,370.7,598.5S211.7,556,167,487.1
		V370.3c0-11.5-9.1-20.8-20.2-20.8h-20.2v-83h20.2c33.5,0,60.7-27.9,60.7-62.3v-40.3c44.2-40.4,103.2-63.4,163.3-63.4
		c67.5,0,131.4,28,177.2,77.2c-9,23.3-13.9,48.6-13.9,74.8v159.3c0,11.5,9.1,20.8,20.2,20.8h20.2V487.1L574.5,487.1z M655.5,577.8
		c0,11.4-9.1,20.8-20.2,20.8c-11.2,0-20.2-9.3-20.2-20.8V432.5h40.5V577.8z M655.5,391h-81V252.5c0-58.6,31-112.7,81-141.1V391z"/>
	<path id="Shape_1_" class="st1" d="M486.4,416.1c3.1-16.9,3.4-34.2,0.8-51.6c-5.6-37.4-25.8-70.8-54-93.5
		c33.1-17.5,55.8-53,55.8-94c0-11.7-9.1-21.1-20.4-21.1h-40.9c-27.5,0-52.4,11.3-70.8,29.5c-10.9-17.7-30-29.5-51.8-29.5
		c-33.8,0-61.3,28.4-61.3,63.3c0,18.9,8,35.8,20.7,47.4c-7.6,5.4-14.7,11.6-21.3,18.6c-33.4,35.6-47.2,86.3-36.9,135.6
		c10.6,50.3,48.8,92.8,97.4,108.3c18.7,6,35.7,15.6,50.5,28.6c52.6,46.3,134.7,7.8,134.7-64.3C489,473.1,479.1,455.3,486.4,416.1z
		 M427.7,198.2h16.9c-8.4,24.6-31.2,42.2-57.8,42.2h-16.9C378.3,215.8,401.1,198.2,427.7,198.2z M305.1,198.2
		c11.3,0,20.4,9.5,20.4,21.1s-9.2,21.1-20.4,21.1c-11.3,0-20.4-9.5-20.4-21.1S293.8,198.2,305.1,198.2z M380.8,525.7
		c-19-16.7-40.9-29.1-64.9-36.8c-34.7-11.1-62-41.3-69.5-76.9c-7.6-36,2-71.4,26.3-97.3c19.6-20.9,45.5-32.1,73.1-32.1
		c0.1,0,0.2,0,0.2,0h0.4c53.1,0.3,93.3,41.1,100.4,88.4c1.9,12.5,1.7,25-0.5,37.1c-8.5,45.8,1.8,73.9,1.8,85.4
		C448.1,529.7,407,548.8,380.8,525.7z"/>
	<path id="Shape_2_" class="st1" d="M346,328c-30.3,0-55,24.7-55,55s24.7,55,55,55s55-24.7,55-55S376.3,328,346,328z M346,401.3
		c-10.1,0-18.3-8.2-18.3-18.3s8.2-18.3,18.3-18.3s18.3,8.2,18.3,18.3S356.1,401.3,346,401.3z"/>
</g>
</svg>
