<?xml version="1.0" encoding="utf-8"?>
<svg width="185px" height="185px" viewbox="0 0 185 185" version="1.1" xmlns:xlink="http://www.w3.org/1999/xlink" xmlns="http://www.w3.org/2000/svg">
  <g id="home-run-copy" transform="translate(0.5 0.5)">
    <path d="M183.951 79.5936C183.62 75.2842 181.632 71.3631 178.352 68.5521L162.437 54.9066L162.437 16.1316C162.437 13.1537 160.023 10.7399 157.046 10.7399L135.485 10.7399C132.507 10.7399 130.166 13.1541 130.166 16.1316L130.166 27.1774L102.886 3.92142C96.7869 -1.30492 87.9344 -1.3042 81.8552 3.90596L5.65206 68.5514C-1.08731 74.3273 -1.96168 84.5201 3.90334 91.368C8.37362 96.5678 15.5342 98.2256 21.6385 96.0796L21.6385 178.608C21.6385 181.586 23.9802 184 26.957 184L157.046 184C160.023 184 162.436 181.586 162.436 178.608L162.436 96.0807C168.738 98.3094 175.747 96.4416 180.106 91.3608C182.916 88.0796 184.282 83.9004 183.951 79.5936ZM140.875 21.5233L151.728 21.5233L151.728 45.6631L140.875 36.4201L140.875 21.5233ZM124.704 174.239L59.3716 174.239L32.3476 174.239L32.3476 88.7077L92.3429 37.4187L151.728 88.657L151.728 174.239L124.704 174.239ZM171.921 84.3411C170.01 86.5691 166.613 86.8959 164.318 84.9274L95.8687 26.2388C93.858 24.5144 90.8932 24.5072 88.8738 26.2208C87.4151 27.4581 19.9739 84.6822 19.6886 84.9245C17.431 86.8567 14.0169 86.5932 12.0838 84.344C10.1486 82.0847 10.4102 78.6737 12.6477 76.7555L88.8512 12.1098C90.8853 10.3671 93.8372 10.3667 95.8698 12.1091L171.337 76.7401C173.593 78.674 173.854 82.0854 171.921 84.3411Z" id="Shape" fill="#FFFFFF" stroke="none" />
    <path d="M40.3351 0L5.58939 0C2.46063 0 0 2.40669 0 5.37491L0 37.6251C0 40.5937 2.46101 43 5.58939 43L40.3351 43C43.4638 43 46 40.5933 46 37.6251L46 5.37491C46.0004 2.40633 43.4638 0 40.3351 0ZM34.7457 32.2505L11.2543 32.2505L11.2543 10.7502L34.7457 10.7502L34.7457 32.2505Z" transform="translate(68 65)" id="Shape" fill="#FFFFFF" stroke="none" />
    <path d="M5.67039 0L64.253 0C67.4271 0 70.0004 2.63982 70 5.89644L70 57L56.7555 57L56.7555 12.1429L13.3189 12.1429L13.3189 57L0 57L0 5.89644C0 2.64021 2.49629 0 5.67039 0Z" transform="translate(57 117)" id="Combined-Shape" fill="#02B46C" fill-rule="evenodd" stroke="none" />
  </g>
</svg>