<?xml version="1.0" encoding="utf-8"?>
<!-- Generator: Adobe Illustrator 22.0.0, SVG Export Plug-In . SVG Version: 6.00 Build 0)  -->
<svg version="1.1" id="Layer_1" xmlns="http://www.w3.org/2000/svg" xmlns:xlink="http://www.w3.org/1999/xlink" x="0px" y="0px"
	 viewBox="0 0 700 700" style="enable-background:new 0 0 700 700;" xml:space="preserve">
<style type="text/css">
	.st0{fill:#FFFFFF;}
	.st1{fill:#02B46C;}
</style>
<g id="home-run-copy" transform="translate(0.5 0.5)">
	<path id="Shape" class="st0" d="M698.3,303.2c-1.3-16.4-8.8-31.2-21.3-41.9l-60.4-51.8V62.2c0-11.3-9.2-20.5-20.5-20.5h-81.9
		c-11.3,0-20.2,9.2-20.2,20.5v41.9L390.6,15.9C367.4-4,333.8-4,310.7,15.8L21.5,261.2c-25.6,21.9-28.9,60.6-6.6,86.6
		c17,19.7,44.2,26,67.3,17.9V679c0,11.3,8.9,20.5,20.2,20.5h493.8c11.3,0,20.5-9.2,20.5-20.5V365.7c23.9,8.5,50.5,1.4,67.1-17.9
		C694.4,335.4,699.6,319.5,698.3,303.2z M534.8,82.7H576v91.6l-41.2-35.1V82.7z M473.4,662.4h-248H122.8V337.8L350.6,143L576,337.6
		v324.9H473.4z M652.6,321.2c-7.3,8.5-20.2,9.7-28.9,2.2L363.9,100.6c-7.6-6.5-18.9-6.6-26.6-0.1c-5.5,4.7-261.6,221.9-262.6,222.9
		c-8.6,7.3-21.5,6.3-28.9-2.2c-7.3-8.6-6.4-21.5,2.1-28.8L337.3,47c7.7-6.6,18.9-6.6,26.6,0l286.5,245.4
		C659,299.7,660,312.6,652.6,321.2z"/>
	<path id="Shape_1_" class="st0" d="M411.2,247.9H279.3c-11.9,0-21.2,9.1-21.2,20.3V390c0,11.2,9.3,20.3,21.2,20.3h131.9
		c11.9,0,21.5-9.1,21.5-20.3V268.2C432.7,257,423,247.9,411.2,247.9z M389.9,369.7h-89.2v-81.2h89.2V369.7z"/>
	<path id="Combined-Shape" class="st1" d="M236.3,444.8h223.4c12.1,0,21.9,10,21.9,22.3v193.5h-50.5V490.8H265.5v169.8h-50.8V467.1
		C214.7,454.8,224.2,444.8,236.3,444.8z"/>
</g>
</svg>
