<?xml version="1.0" encoding="UTF-8" standalone="no"?>
<!-- Created with Inkscape (http://www.inkscape.org/) -->

<svg
   xmlns:dc="http://purl.org/dc/elements/1.1/"
   xmlns:cc="http://creativecommons.org/ns#"
   xmlns:rdf="http://www.w3.org/1999/02/22-rdf-syntax-ns#"
   xmlns:svg="http://www.w3.org/2000/svg"
   xmlns="http://www.w3.org/2000/svg"
   xmlns:sodipodi="http://sodipodi.sourceforge.net/DTD/sodipodi-0.dtd"
   xmlns:inkscape="http://www.inkscape.org/namespaces/inkscape"
   height="109.69477mm"
   width="149.1346mm"
   viewBox="0 0 528.42968 388.68226"
   id="svg3356"
   version="1.1"
   inkscape:version="0.91 r13725"
   sodipodi:docname="souvlaki.svg"
   inkscape:export-filename="/home/algot/Documents/runeman.org/clipart/souvlaki.png"
   inkscape:export-xdpi="68.126373"
   inkscape:export-ydpi="68.126373">
  <title
     id="title4442">Souvlaki</title>
  <defs
     id="defs3362">
    <filter
       height="1.3123645"
       y="-0.15618224"
       width="1.194858"
       x="-0.097428948"
       id="filter3823"
       inkscape:collect="always"
       style="color-interpolation-filters:sRGB">
      <feGaussianBlur
         id="feGaussianBlur3825"
         stdDeviation="0.8119079"
         inkscape:collect="always" />
    </filter>
    <filter
       id="filter3831"
       inkscape:collect="always"
       style="color-interpolation-filters:sRGB">
      <feGaussianBlur
         id="feGaussianBlur3833"
         stdDeviation="0.475"
         inkscape:collect="always" />
    </filter>
    <filter
       id="filter5238"
       inkscape:collect="always"
       style="color-interpolation-filters:sRGB">
      <feGaussianBlur
         id="feGaussianBlur5240"
         stdDeviation="2.55"
         inkscape:collect="always" />
    </filter>
    <filter
       id="filter5250"
       inkscape:collect="always"
       style="color-interpolation-filters:sRGB">
      <feGaussianBlur
         id="feGaussianBlur5252"
         stdDeviation="2.6149461"
         inkscape:collect="always" />
    </filter>
    <filter
       inkscape:label="Glowing metal"
       inkscape:menu="Bevels"
       inkscape:menu-tooltip="Glowing metal texture"
       id="filter5683"
       style="color-interpolation-filters:sRGB">
      <feGaussianBlur
         result="result10"
         stdDeviation="3"
         id="feGaussianBlur5685" />
      <feBlend
         in="result10"
         mode="multiply"
         result="result5"
         in2="SourceGraphic"
         id="feBlend5687" />
      <feComposite
         operator="over"
         result="fbSourceGraphic"
         in="result5"
         in2="SourceGraphic"
         id="feComposite5689" />
      <feGaussianBlur
         stdDeviation="5"
         result="result9"
         id="feGaussianBlur5691" />
      <feSpecularLighting
         specularExponent="45"
         specularConstant="2.20000005"
         surfaceScale="1"
         lighting-color="#ffffff"
         result="result1"
         in="result9"
         id="feSpecularLighting5693">
        <fePointLight
           z="20000"
           y="-10000"
           x="-5000"
           id="fePointLight5695" />
      </feSpecularLighting>
      <feComposite
         operator="in"
         result="result2"
         in="result1"
         in2="fbSourceGraphic"
         id="feComposite5697" />
      <feComposite
         k3="0.8"
         k2="2"
         operator="arithmetic"
         result="result4"
         in="result2"
         in2="fbSourceGraphic"
         id="feComposite5699"
         k1="0"
         k4="0" />
      <feBlend
         mode="multiply"
         in="result4"
         in2="result4"
         id="feBlend5701" />
    </filter>
    <filter
       inkscape:label="Bubbly Bumps Matte"
       inkscape:menu="Bumps"
       inkscape:menu-tooltip="Same as Bubbly Bumps but with a diffuse light instead of a specular one"
       style="color-interpolation-filters:sRGB"
       id="filter4444">
      <feGaussianBlur
         result="result0"
         in="SourceGraphic"
         stdDeviation="0.5"
         id="feGaussianBlur4446" />
      <feTurbulence
         baseFrequency="0.2"
         seed="300"
         numOctaves="10"
         result="result1"
         type="fractalNoise"
         id="feTurbulence4448" />
      <feGaussianBlur
         stdDeviation="0.5"
         result="result91"
         id="feGaussianBlur4450" />
      <feDisplacementMap
         xChannelSelector="R"
         scale="5"
         result="result6"
         in="result0"
         in2="result91"
         id="feDisplacementMap4452"
         yChannelSelector="A" />
      <feComposite
         result="result2"
         operator="in"
         in2="result1"
         in="result6"
         id="feComposite4454" />
      <feComposite
         k3="3"
         in2="result2"
         in="result0"
         operator="arithmetic"
         id="feComposite4456"
         k1="0"
         k2="0"
         k4="0" />
      <feBlend
         result="fbSourceGraphic"
         mode="multiply"
         in2="result2"
         id="feBlend4458" />
      <feColorMatrix
         values="1 0 0 -1 0 1 0 1 -1 0 1 0 0 -1 0 -1.8 -0.5 0 5.7 -3.5 "
         in="fbSourceGraphic"
         result="fbSourceGraphicAlpha"
         id="feColorMatrix4460" />
      <feGaussianBlur
         stdDeviation="0.5"
         in="fbSourceGraphicAlpha"
         result="result0"
         id="feGaussianBlur4462" />
      <feDiffuseLighting
         result="result5"
         surfaceScale="50"
         diffuseConstant="0.60000002"
         id="feDiffuseLighting4464">
        <feDistantLight
           azimuth="225"
           elevation="10"
           id="feDistantLight4466" />
      </feDiffuseLighting>
      <feComposite
         in2="fbSourceGraphicAlpha"
         in="result5"
         result="result2"
         operator="in"
         id="feComposite4468" />
      <feComposite
         in="fbSourceGraphic"
         result="result4"
         operator="arithmetic"
         k2="1"
         k3="0.7"
         in2="result2"
         id="feComposite4470"
         k1="0"
         k4="0" />
    </filter>
    <filter
       id="filter4116"
       inkscape:collect="always"
       style="color-interpolation-filters:sRGB">
      <feGaussianBlur
         id="feGaussianBlur4118"
         stdDeviation="0.64633161"
         inkscape:collect="always" />
    </filter>
    <filter
       id="filter4726"
       inkscape:collect="always"
       style="color-interpolation-filters:sRGB">
      <feGaussianBlur
         id="feGaussianBlur4728"
         stdDeviation="0.825"
         inkscape:collect="always" />
    </filter>
    <filter
       inkscape:label="Drop Shadow"
       id="filter4840"
       style="color-interpolation-filters:sRGB">
      <feFlood
         result="flood"
         flood-color="rgb(0,0,0)"
         flood-opacity="0.6"
         id="feFlood4842" />
      <feComposite
         result="composite1"
         operator="in"
         in="flood"
         id="feComposite4844"
         in2="SourceGraphic" />
      <feGaussianBlur
         result="blur"
         stdDeviation="1"
         id="feGaussianBlur4846" />
      <feOffset
         result="offset"
         dy="0.5"
         dx="0.5"
         id="feOffset4848" />
      <feComposite
         result="composite2"
         operator="over"
         in="SourceGraphic"
         id="feComposite4850"
         in2="offset" />
    </filter>
  </defs>
  <sodipodi:namedview
     pagecolor="#ffffff"
     bordercolor="#666666"
     borderopacity="1"
     objecttolerance="10"
     gridtolerance="10"
     guidetolerance="10"
     inkscape:pageopacity="0"
     inkscape:pageshadow="2"
     inkscape:window-width="1366"
     inkscape:window-height="712"
     id="namedview3360"
     showgrid="false"
     fit-margin-top="0"
     fit-margin-left="-20"
     fit-margin-right="-15"
     fit-margin-bottom="0"
     inkscape:zoom="0.50983516"
     inkscape:cx="59.387611"
     inkscape:cy="308.06155"
     inkscape:window-x="0"
     inkscape:window-y="0"
     inkscape:window-maximized="1"
     inkscape:current-layer="svg3356" />
  <metadata
     id="metadata3358">
    <rdf:RDF>
      <cc:Work
         rdf:about="">
        <dc:format>image/svg+xml</dc:format>
        <dc:type
           rdf:resource="http://purl.org/dc/dcmitype/StillImage" />
        <dc:title>Souvlaki</dc:title>
        <dc:date>2017-01-16</dc:date>
        <dc:creator>
          <cc:Agent>
            <dc:title>Algot Runeman</dc:title>
          </cc:Agent>
        </dc:creator>
        <dc:rights>
          <cc:Agent>
            <dc:title>Algot Runeman</dc:title>
          </cc:Agent>
        </dc:rights>
        <dc:publisher>
          <cc:Agent>
            <dc:title>runeman.org</dc:title>
          </cc:Agent>
        </dc:publisher>
        <dc:identifier>souvlaki.svg</dc:identifier>
        <cc:license
           rdf:resource="http://creativecommons.org/publicdomain/zero/1.0/" />
      </cc:Work>
      <cc:License
         rdf:about="http://creativecommons.org/publicdomain/zero/1.0/">
        <cc:permits
           rdf:resource="http://creativecommons.org/ns#Reproduction" />
        <cc:permits
           rdf:resource="http://creativecommons.org/ns#Distribution" />
        <cc:permits
           rdf:resource="http://creativecommons.org/ns#DerivativeWorks" />
      </cc:License>
    </rdf:RDF>
  </metadata>
  <g
     style="filter:url(#filter4840)"
     id="g4193"
     transform="matrix(0.61857032,0.001034,-0.001034,0.61857032,109.13844,-89.777151)">
    <path
       style="fill:#000000;stroke:#000000;stroke-width:1px;stroke-linecap:butt;stroke-linejoin:miter;stroke-opacity:1"
       d="m 552,444.36218 c 0,0 5.34683,-9.24489 10,-10 7.35732,-1.19393 14.09582,2.79378 16,10 14.60396,55.26754 4.47834,83.4384 0,136 -0.28298,3.3213 -5.29289,12.72792 -5.29289,12.72792 L 572,734.36218 c -6.43096,0.99059 -12.86193,2.99951 -19.29289,-1.41421 L 552,580.36218 Z"
       id="path4185"
       inkscape:connector-curvature="0"
       sodipodi:nodetypes="csssccccc" />
    <g
       transform="translate(1.2928932,0)"
       id="g4187">
      <path
         style="fill:#f2f2f2;stroke:#000000;stroke-width:1px;stroke-linecap:butt;stroke-linejoin:miter;stroke-opacity:1"
         d="m 550,442.36218 c 0.0263,-4.71397 5.34683,-9.24489 10,-10 7.35732,-1.19393 14.09582,2.79378 16,10 14.60396,55.26754 4.47834,83.4384 0,136 -0.28298,3.3213 -5.29289,12.72792 -5.29289,12.72792 L 570,732.36218 l -20,0 0,-154 c 0,0 -0.24188,-92.7051 0,-136 z"
         id="path4181"
         inkscape:connector-curvature="0"
         sodipodi:nodetypes="ssssccccs" />
      <path
         style="fill:#ffffff;stroke:none"
         d="m 553.66461,592.74277 -0.70711,134.35029 3.53554,2.82843 1.41421,-147.07821 z"
         id="path4183"
         inkscape:connector-curvature="0" />
    </g>
    <path
       inkscape:connector-curvature="0"
       id="path4191"
       d="m 553.66461,443.54324 0,127.27922 2.82843,-3.53553 -0.34643,-128.34698 z"
       style="fill:#ffffff;stroke:none"
       sodipodi:nodetypes="ccccc" />
  </g>
  <ellipse
     style="fill:#b3b3b3;fill-opacity:1;stroke:#000000;stroke-width:0.25"
     id="path3001"
     cx="381.81793"
     cy="223.8174"
     rx="35"
     ry="12.5" />
  <ellipse
     id="path3003"
     style="fill:#e6e6e6;fill-opacity:1;stroke:#000000;stroke-width:0.5;filter:url(#filter3831)"
     cx="381.81793"
     cy="221.8174"
     rx="35"
     ry="12.5" />
  <path
     sodipodi:nodetypes="ccccc"
     inkscape:connector-curvature="0"
     id="path2999"
     d="m 373.87414,135.31293 18.59471,0 c -5.77795,26.66964 -3.78979,53.33928 -5.57841,80.00892 l -7.43789,0 c -1.73066,-26.65232 2.50822,-52.50196 -5.57841,-80.00892 z"
     style="fill:#cccccc;stroke:none" />
  <path
     style="fill:#ffffff;stroke:#000000;stroke-width:0.25;stroke-linecap:butt;stroke-linejoin:miter;stroke-opacity:1"
     d="m 371.8786,135.31739 20,0 c -6.21462,26.66667 -4.0762,53.33333 -6,80 -2.66667,2.28005 -5.33333,2.43297 -8,0 -1.86145,-26.64935 2.69778,-52.49611 -6,-80 z"
     id="path2995"
     inkscape:connector-curvature="0"
     sodipodi:nodetypes="ccccc" />
  <path
     style="fill:none;stroke:#000000;stroke-width:1px;stroke-linecap:butt;stroke-linejoin:miter;stroke-opacity:1"
     d="m 341.8786,7.31739 c 0,0 -6.89259,58.80253 0,88 3.42495,14.50834 7.31925,32.16286 20,40 11.34201,7.00975 28.65799,7.00975 40,0 12.68075,-7.83713 16.57505,-25.49166 20,-40 6.89259,-29.19747 0,-88 0,-88 -24.43948,-5.56798 -50.25632,-7.69254 -80,0 z"
     id="path2987"
     inkscape:connector-curvature="0"
     sodipodi:nodetypes="csssscc" />
  <path
     sodipodi:nodetypes="csscc"
     inkscape:connector-curvature="0"
     id="path2989"
     d="m 351.06058,115.31739 c 3.08661,14.30525 1.18893,11.9926 12.61699,19.72004 10.22156,6.91163 25.82695,6.91163 36.04851,0 11.42806,-7.72743 9.53038,-5.41479 12.61699,-19.72004 -9.01213,19.72004 -52.27036,19.72004 -61.28249,0 z"
     style="fill:#cccccc;stroke:none" />
  <path
     sodipodi:nodetypes="csscc"
     inkscape:connector-curvature="0"
     id="path2991"
     d="m 341.8786,81.31739 c 3.42495,14.50834 3.31925,36.16286 16,44 11.34201,7.00975 36.65799,7.00975 48,0 12.68075,-7.83713 12.57505,-29.49166 16,-44 0,4 -80,4 -80,0 z"
     style="fill:#803300;stroke:#000000;stroke-width:1px;stroke-linecap:butt;stroke-linejoin:miter;stroke-opacity:1" />
  <ellipse
     style="fill:none;fill-opacity:1;stroke:#000000;stroke-width:0.6097104"
     id="path2993"
     cx="381.8786"
     cy="7.8174033"
     rx="39.945145"
     ry="7.4451451" />
  <path
     style="fill:#f2f2f2;stroke:#000000;stroke-width:0.25;stroke-linecap:butt;stroke-linejoin:miter;stroke-opacity:1;filter:url(#filter3823)"
     d="m 377.23215,210.31739 c 3.58216,-3.39169 6.6534,-3.20691 9.2929,0 -0.32794,3.68541 0.0968,7.24538 5.35355,10 -6.66667,2.86868 -13.33333,3.70825 -20,0 3.04072,-3.01928 6.00139,-6.05858 5.35355,-10 z"
     id="path3005"
     inkscape:connector-curvature="0"
     sodipodi:nodetypes="ccccc" />
  <ellipse
     ry="3.0023673"
     rx="39.911377"
     cy="80.515869"
     cx="381.97919"
     style="fill:#803300;fill-opacity:1;stroke:#ffffff;stroke-width:0.24526501;stroke-miterlimit:4;stroke-dasharray:none;stroke-dashoffset:0;stroke-opacity:1"
     id="path3905" />
  <path
     style="fill:#ffffff;fill-opacity:1;stroke:none"
     d="m 340.31282,79.831063 82.59976,0.353554 c 0,0 -27.77769,-2.387149 -39.70889,-2.474874 -12.98254,-0.09546 -42.89087,2.12132 -42.89087,2.12132 z"
     id="path3907"
     inkscape:connector-curvature="0"
     sodipodi:nodetypes="ccsc" />
  <ellipse
     ry="74"
     rx="181"
     cy="493.36218"
     cx="382"
     id="path5552"
     style="fill:#f9f9f9;fill-opacity:1;stroke:#000000;stroke-width:1.64318347;filter:url(#filter5250)"
     transform="matrix(0.64415447,0,0,0.57496032,-7.8719614,37.375916)" />
  <ellipse
     ry="74"
     rx="181"
     cy="283.03955"
     cx="238.69504"
     style="fill:#000080;fill-opacity:1;stroke:#ffff00;stroke-width:3"
     id="path4712" />
  <ellipse
     ry="74"
     rx="181"
     cy="493.36218"
     cx="382"
     id="path4714"
     style="fill:#ececec;fill-opacity:1;stroke:none;filter:url(#filter5238)"
     transform="matrix(0.7027027,0,0,0.7027027,-29.737392,-63.647354)" />
  <ellipse
     ry="74"
     rx="181"
     cy="493.36218"
     cx="382"
     transform="matrix(0.64415447,0,0,0.57496032,-7.8719614,-0.62408451)"
     style="fill:#f9f9f9;fill-opacity:1;stroke:#cccccc;filter:url(#filter5250)"
     id="path4716" />
  <path
     style="fill:#f9f9f9;stroke:#000000;stroke-width:0.14349037;filter:url(#filter4444)"
     d="m 307.44437,226.40704 c -33.15681,-21.75453 -54.57682,-20.26649 -69.72611,-6.36047 l -34.27686,12.3874 9.02321,17.8687 c -42.63696,20.25749 5.78118,20.77434 33.77335,25.71952 l 43.86716,8.66251 c 38.62055,9.24928 65.77309,-4.89777 75.86274,-24.70733 4.29916,-12.93859 -1.98259,-25.10008 -58.52349,-33.57033 z"
     id="path5530"
     inkscape:connector-curvature="0"
     sodipodi:nodetypes="cccccccc" />
  <path
     style="fill:none;stroke:#000000;stroke-width:0.12794489;stroke-linecap:butt;stroke-linejoin:miter;stroke-opacity:1"
     d="m 221.0864,226.74784 c -22.41478,1.6267 -24.85878,9.91034 -16.63283,21.75063 l 3.83834,17.91228 15.35339,5.1178 c 8.52966,24.53757 17.05931,7.61893 25.58897,0 l 14.07394,-11.51504 c 13.64746,-9.38262 7.2502,-25.58898 -6.39724,-38.38347 -9.29844,-7.54486 -19.77159,-10.97823 -35.82457,5.1178 z"
     id="path5526"
     inkscape:connector-curvature="0"
     sodipodi:nodetypes="cccccccc" />
  <path
     sodipodi:nodetypes="cccccccc"
     inkscape:connector-curvature="0"
     id="path5528"
     d="m 221.84339,230.30767 c -19.24976,1.24044 -21.34864,7.55713 -14.28423,16.58593 l 3.29636,13.65901 13.18544,3.90257 c 7.32524,18.71112 14.65048,5.80982 21.97573,0 l 12.08665,-8.7808 c 11.7204,-7.1547 6.22645,-19.51284 -5.49393,-29.26929 -7.98548,-5.75331 -16.97978,-8.37144 -30.76602,3.90258 z"
     style="fill:#ffffff;stroke:none" />
  <path
     style="fill:#ffffff;stroke:#000000;stroke-width:0.1;stroke-opacity:1"
     d="m 215.38939,239.91173 c -7.95397,10.61249 -5.38598,14.73356 2.80362,15.38641 l 9.07088,4.83391 8.08918,-4.99055 c 13.68752,5.15969 9.80693,-4.83847 9.86732,-11.43633 l 0.54723,-10.50028 c 1.28645,-9.52999 -8.04823,-12.59651 -18.7328,-11.17526 -6.78286,1.39705 -12.27637,4.82237 -11.64543,17.8821 z"
     id="path5581"
     inkscape:connector-curvature="0"
     sodipodi:nodetypes="cccccccc" />
  <ellipse
     ry="74"
     rx="181"
     cy="283.03955"
     cx="238.69504"
     id="path5585"
     style="fill:none;fill-opacity:1;stroke:#ffff00;stroke-width:3;filter:url(#filter5683)" />
  <path
     sodipodi:nodetypes="cccccccc"
     inkscape:connector-curvature="0"
     id="path5583"
     d="m 232.38939,253.91173 c -7.95397,10.61249 -5.38598,14.73356 2.80362,15.38641 l 9.07088,4.83391 8.08918,-4.99055 c 13.68752,5.15969 9.80693,-4.83847 9.86732,-11.43633 l 0.54723,-10.50028 c 1.28645,-9.52999 -8.04823,-12.59651 -18.7328,-11.17526 -6.78286,1.39705 -12.27637,4.82237 -11.64543,17.8821 z"
     style="fill:#ffffff;stroke:#000000;stroke-width:0.1;stroke-opacity:1" />
  <g
     id="g3612"
     transform="matrix(0.30574168,0.08994282,-0.08994282,0.30574168,245.4859,78.538306)">
    <g
       transform="matrix(1.3945325,0,0,0.66565207,-340.58799,189.48356)"
       id="g3614">
      <path
         style="fill:#cccccc;fill-rule:evenodd;stroke:#000000;stroke-width:1px;stroke-linecap:butt;stroke-linejoin:miter;stroke-opacity:1"
         d="m 30,552.3622 30,-10 590,0 0,20 -590,0 z"
         id="path3616"
         inkscape:connector-curvature="0" />
      <path
         style="fill:#b3b3b3;fill-rule:evenodd;stroke:#000000;stroke-width:1px;stroke-linecap:butt;stroke-linejoin:miter;stroke-opacity:1"
         d="m 60,542.3622 0,20 -30,-10 z"
         id="path3618"
         inkscape:connector-curvature="0" />
      <path
         style="fill:none;fill-rule:evenodd;stroke:#000000;stroke-width:1px;stroke-linecap:butt;stroke-linejoin:miter;stroke-opacity:1"
         d="m 30,552.3622 620,0"
         id="path3620"
         inkscape:connector-curvature="0"
         sodipodi:nodetypes="cc" />
      <path
         style="fill:#ff7f2a;fill-rule:evenodd;stroke:#000000;stroke-width:1px;stroke-linecap:butt;stroke-linejoin:miter;stroke-opacity:1"
         d="m 650,522.3622 c -0.49369,10.91732 -4.94033,23.64676 0,60 l 30,0 c 10,-5.23039 20,-7.97921 30,0 10,-3.57292 20,-11.50694 30,0 10,-6.27647 20,-9.57506 30,0 l 30,0 c 0.68949,-9.89798 -3.23903,-21.34449 0,-60 l -30,0 c -10,12.47591 -20,5.61364 -30,0 -10,9.57506 -20,6.27647 -30,0 -10,8 -20,8 -30,0 z"
         id="path3622"
         inkscape:connector-curvature="0"
         sodipodi:nodetypes="ccccccccccccc" />
      <path
         style="fill:none;fill-rule:evenodd;stroke:#000000;stroke-width:1px;stroke-linecap:butt;stroke-linejoin:miter;stroke-opacity:1"
         d="m 680,522.3622 c 0.58373,10.39873 -2.58069,20.92402 0,60"
         id="path3624"
         inkscape:connector-curvature="0"
         sodipodi:nodetypes="cc" />
      <path
         style="fill:none;fill-rule:evenodd;stroke:#000000;stroke-width:1px;stroke-linecap:butt;stroke-linejoin:miter;stroke-opacity:1"
         d="m 770,522.3622 c 0.086,15.87129 -3.09328,32.94464 0,60"
         id="path3626"
         inkscape:connector-curvature="0"
         sodipodi:nodetypes="cc" />
    </g>
    <ellipse
       style="opacity:1;fill:#ff0000;fill-opacity:1;stroke:none;stroke-width:1;stroke-linecap:round;stroke-linejoin:bevel;stroke-miterlimit:4;stroke-dasharray:none;stroke-dashoffset:0;stroke-opacity:1"
       id="ellipse3628"
       cx="-212.08409"
       cy="545.65894"
       rx="25"
       ry="91.5" />
    <ellipse
       ry="91.5"
       rx="25"
       cy="545.65894"
       cx="-204.08409"
       id="ellipse3630"
       style="opacity:1;fill:#ff0000;fill-opacity:1;stroke:none;stroke-width:1;stroke-linecap:round;stroke-linejoin:bevel;stroke-miterlimit:4;stroke-dasharray:none;stroke-dashoffset:0;stroke-opacity:1" />
    <path
       style="fill:#f2f2f2;fill-rule:evenodd;stroke:#000000;stroke-width:1.15463209px;stroke-linecap:butt;stroke-linejoin:miter;stroke-opacity:1"
       d="m -198.00204,460.29738 c -15.0021,1.28889 -11.61928,22.00814 -16.88396,34.9403 -7.44539,18.28883 -12.65568,38.47637 -11.44676,58.23383 0.74976,12.25305 6.82932,23.59803 11.44676,34.9403 6.53002,16.04038 -1.82702,43.99047 16.88396,46.58707 5.70479,0.79168 11.44674,-11.64677 11.44674,-11.64677 l 0,-151.40796 c 0,0 -5.70031,-12.14047 -11.44674,-11.64677 z"
       id="path3632"
       inkscape:connector-curvature="0"
       sodipodi:nodetypes="sssssccs" />
    <g
       transform="matrix(0.73607538,0,0,0.73607538,-345.90123,252.19631)"
       id="g3634">
      <path
         style="fill:#803300;fill-rule:evenodd;stroke:#000000;stroke-width:1px;stroke-linecap:butt;stroke-linejoin:miter;stroke-opacity:1"
         d="m 300,492.3622 20,-20 20,-20 0,-20 c 1.83801,-2.99064 3.39363,-1.11184 0,-14.56577 -6.56583,-1.19097 -13.34708,1.65476 -16.33656,-0.0116 -5.37146,-2.9941 -7.52435,-11.78121 0.68991,-16.67862 3.04641,-1.8163 10.8328,-0.61205 15.64665,-1.95122 8.48409,-20.1206 4.59502,-37.13546 0,-46.79278 l 0,-20 -60,40 0,110 z"
         id="path3636"
         inkscape:connector-curvature="0"
         sodipodi:nodetypes="cccccsscccccc" />
      <path
         style="fill:#2b1100;fill-rule:evenodd;stroke:#000000;stroke-width:1px;stroke-linecap:butt;stroke-linejoin:miter;stroke-opacity:1"
         d="m 170,372.3622 20,-20 c -1.02588,-9.74369 7.76536,-15.56052 20,-20 l 20,0 c 18.91137,-7.12909 24.00975,-3.2078 30,0 l 20,0 c 25.36508,-6.58503 21.18519,-0.50794 30,0 l 20,0 10,0 c -3.90965,7.58567 -8.24288,15.03015 -20,20 l -12,6 -8,14 c -34.99653,7.14583 -59.81713,23.01389 -130,0 z"
         id="path3638"
         inkscape:connector-curvature="0"
         sodipodi:nodetypes="ccccccccccccc" />
      <path
         style="fill:#552200;fill-rule:evenodd;stroke:#000000;stroke-width:1px;stroke-linecap:butt;stroke-linejoin:miter;stroke-opacity:1"
         d="m 170,372.3622 c 9.19805,-1.6039 18.21773,-3.56455 30,0 13.33333,10.33319 26.66667,1.74123 40,0 13.33333,-9.0659 26.66667,-0.4174 40,0 4.22894,1.39299 -1.13314,8.26655 20,0 9.58912,10 2.97744,20 0,30 -1.36622,11.57627 1.89596,21.06948 0,30 1.77847,10 1.03654,20 0,30 -2.66666,10 -2.66667,20 0,30 -6.66667,4.59502 -13.33333,8.48408 -20,0 -16.33417,-2.76046 -29.21214,0.77167 -40,0 -15.2272,4.66194 -30.69302,3.38225 -40,0 l -30,0 c 5.33334,-9.33334 5.33332,-16 0,-20 -0.33668,-9.18813 -4.53518,-20.28125 0,-40 0.50794,-9.83069 6.58503,-17.80499 0,-30 0,-10 -3.20779,-21.6039 0,-30 z"
         id="path3640"
         inkscape:connector-curvature="0"
         sodipodi:nodetypes="ccccccccccccccccc" />
    </g>
    <path
       style="fill:#f2f2f2;fill-rule:evenodd;stroke:#000000;stroke-width:1.14514625px;stroke-linecap:butt;stroke-linejoin:miter;stroke-opacity:1"
       d="m -108.07012,463.26711 c 13.695971,1.35617 17.636071,21.63909 22.902921,34.35439 7.44846,17.98215 12.66089,37.83117 11.45147,57.25731 -0.75006,12.04758 -6.83213,23.20232 -11.45147,34.35439 -6.53272,15.77139 -6.05252,43.07141 -22.902921,45.80585 -5.32857,0.86471 -11.45146,-11.45147 -11.45146,-11.45147 l 0,-148.869 c 0,0 6.07946,-11.9834 11.45146,-11.45147 z"
       id="path3642"
       inkscape:connector-curvature="0"
       sodipodi:nodetypes="sssssccs" />
    <g
       transform="matrix(0.73607538,0,0,0.73607538,-230.90123,248.19631)"
       id="g3644">
      <path
         style="fill:#803300;fill-rule:evenodd;stroke:#000000;stroke-width:1px;stroke-linecap:butt;stroke-linejoin:miter;stroke-opacity:1"
         d="m 300,492.3622 20,-20 20,-20 0,-20 c 1.83801,-2.99064 3.39363,-1.11184 0,-14.56577 -6.56583,-1.19097 -13.34708,1.65476 -16.33656,-0.0116 -5.37146,-2.9941 -7.52435,-11.78121 0.68991,-16.67862 3.04641,-1.8163 10.8328,-0.61205 15.64665,-1.95122 8.48409,-20.1206 4.59502,-37.13546 0,-46.79278 l 0,-20 -60,40 0,110 z"
         id="path3646"
         inkscape:connector-curvature="0"
         sodipodi:nodetypes="cccccsscccccc" />
      <path
         style="fill:#2b1100;fill-rule:evenodd;stroke:#000000;stroke-width:1px;stroke-linecap:butt;stroke-linejoin:miter;stroke-opacity:1"
         d="m 170,372.3622 20,-20 c -1.02588,-9.74369 7.76536,-15.56052 20,-20 l 20,0 c 18.91137,-7.12909 24.00975,-3.2078 30,0 l 20,0 c 25.36508,-6.58503 21.18519,-0.50794 30,0 l 20,0 10,0 c -3.90965,7.58567 -8.24288,15.03015 -20,20 l -12,6 -8,14 c -34.99653,7.14583 -59.81713,23.01389 -130,0 z"
         id="path3648"
         inkscape:connector-curvature="0"
         sodipodi:nodetypes="ccccccccccccc" />
      <path
         style="fill:#552200;fill-rule:evenodd;stroke:#000000;stroke-width:1px;stroke-linecap:butt;stroke-linejoin:miter;stroke-opacity:1"
         d="m 170,372.3622 c 9.19805,-1.6039 18.21773,-3.56455 30,0 13.33333,10.33319 26.66667,1.74123 40,0 13.33333,-9.0659 26.66667,-0.4174 40,0 4.22894,1.39299 -1.13314,8.26655 20,0 9.58912,10 2.97744,20 0,30 -1.36622,11.57627 1.89596,21.06948 0,30 1.77847,10 1.03654,20 0,30 -2.66666,10 -2.66667,20 0,30 -6.66667,4.59502 -13.33333,8.48408 -20,0 -16.33417,-2.76046 -29.21214,0.77167 -40,0 -15.2272,4.66194 -30.69302,3.38225 -40,0 l -30,0 c 5.33334,-9.33334 5.33332,-16 0,-20 -0.33668,-9.18813 -4.53518,-20.28125 0,-40 0.50794,-9.83069 6.58503,-17.80499 0,-30 0,-10 -3.20779,-21.6039 0,-30 z"
         id="path3650"
         inkscape:connector-curvature="0"
         sodipodi:nodetypes="ccccccccccccccccc" />
    </g>
    <ellipse
       ry="91.5"
       rx="25"
       cy="545.65894"
       cx="12.915895"
       id="ellipse3652"
       style="opacity:1;fill:#ff0000;fill-opacity:1;stroke:none;stroke-width:1;stroke-linecap:round;stroke-linejoin:bevel;stroke-miterlimit:4;stroke-dasharray:none;stroke-dashoffset:0;stroke-opacity:1" />
    <ellipse
       style="opacity:1;fill:#ff0000;fill-opacity:1;stroke:none;stroke-width:1;stroke-linecap:round;stroke-linejoin:bevel;stroke-miterlimit:4;stroke-dasharray:none;stroke-dashoffset:0;stroke-opacity:1"
       id="ellipse3654"
       cx="20.915895"
       cy="545.65894"
       rx="25"
       ry="91.5" />
    <path
       sodipodi:nodetypes="sssssccs"
       inkscape:connector-curvature="0"
       id="path3656"
       d="m 26.984481,440.33063 c -14.9784,1.43594 -11.60093,24.51897 -16.85729,38.92651 -7.4336199,20.37533 -12.6356699,42.86599 -11.4286599,64.8775 0.74857003,13.65095 6.81852,26.29024 11.4286599,38.9265 6.5197,17.87036 -1.8241299,49.00917 16.85729,51.90201 5.69577,0.882 11.42865,-12.97551 11.42865,-12.97551 l 0,-168.6815 c 0,0 -5.6913,-13.52553 -11.42865,-12.97551 z"
       style="fill:#f2f2f2;fill-rule:evenodd;stroke:#000000;stroke-width:1.21775389px;stroke-linecap:butt;stroke-linejoin:miter;stroke-opacity:1" />
    <g
       id="g3658"
       transform="matrix(0.73607538,0,0,0.73607538,-120.90124,252.19631)">
      <path
         sodipodi:nodetypes="cccccsscccccc"
         inkscape:connector-curvature="0"
         id="path3660"
         d="m 300,492.3622 20,-20 20,-20 0,-20 c 1.83801,-2.99064 3.39363,-1.11184 0,-14.56577 -6.56583,-1.19097 -13.34708,1.65476 -16.33656,-0.0116 -5.37146,-2.9941 -7.52435,-11.78121 0.68991,-16.67862 3.04641,-1.8163 10.8328,-0.61205 15.64665,-1.95122 8.48409,-20.1206 4.59502,-37.13546 0,-46.79278 l 0,-20 -60,40 0,110 z"
         style="fill:#803300;fill-rule:evenodd;stroke:#000000;stroke-width:1px;stroke-linecap:butt;stroke-linejoin:miter;stroke-opacity:1" />
      <path
         sodipodi:nodetypes="ccccccccccccc"
         inkscape:connector-curvature="0"
         id="path3662"
         d="m 170,372.3622 20,-20 c -1.02588,-9.74369 7.76536,-15.56052 20,-20 l 20,0 c 18.91137,-7.12909 24.00975,-3.2078 30,0 l 20,0 c 25.36508,-6.58503 21.18519,-0.50794 30,0 l 20,0 10,0 c -3.90965,7.58567 -8.24288,15.03015 -20,20 l -12,6 -8,14 c -34.99653,7.14583 -59.81713,23.01389 -130,0 z"
         style="fill:#2b1100;fill-rule:evenodd;stroke:#000000;stroke-width:1px;stroke-linecap:butt;stroke-linejoin:miter;stroke-opacity:1" />
      <path
         sodipodi:nodetypes="ccccccccccccccccc"
         inkscape:connector-curvature="0"
         id="path3664"
         d="m 170,372.3622 c 9.19805,-1.6039 18.21773,-3.56455 30,0 13.33333,10.33319 26.66667,1.74123 40,0 13.33333,-9.0659 26.66667,-0.4174 40,0 4.22894,1.39299 -1.13314,8.26655 20,0 9.58912,10 2.97744,20 0,30 -1.36622,11.57627 1.89596,21.06948 0,30 1.77847,10 1.03654,20 0,30 -2.66666,10 -2.66667,20 0,30 -6.66667,4.59502 -13.33333,8.48408 -20,0 -16.33417,-2.76046 -29.21214,0.77167 -40,0 -15.2272,4.66194 -30.69302,3.38225 -40,0 l -30,0 c 5.33334,-9.33334 5.33332,-16 0,-20 -0.33668,-9.18813 -4.53518,-20.28125 0,-40 0.50794,-9.83069 6.58503,-17.80499 0,-30 0,-10 -3.20779,-21.6039 0,-30 z"
         style="fill:#552200;fill-rule:evenodd;stroke:#000000;stroke-width:1px;stroke-linecap:butt;stroke-linejoin:miter;stroke-opacity:1" />
    </g>
    <ellipse
       ry="91.5"
       rx="25"
       cy="549.65894"
       cx="128.91589"
       id="ellipse3666"
       style="opacity:1;fill:#ff0000;fill-opacity:1;stroke:none;stroke-width:1;stroke-linecap:round;stroke-linejoin:bevel;stroke-miterlimit:4;stroke-dasharray:none;stroke-dashoffset:0;stroke-opacity:1" />
    <ellipse
       style="opacity:1;fill:#ff0000;fill-opacity:1;stroke:none;stroke-width:1;stroke-linecap:round;stroke-linejoin:bevel;stroke-miterlimit:4;stroke-dasharray:none;stroke-dashoffset:0;stroke-opacity:1"
       id="ellipse3668"
       cx="136.91589"
       cy="549.65894"
       rx="25"
       ry="91.5" />
    <path
       sodipodi:nodetypes="sssssccs"
       inkscape:connector-curvature="0"
       id="path3670"
       d="m 142.99796,464.29738 c -15.00211,1.28889 -11.61929,22.00814 -16.88397,34.9403 -7.44539,18.28883 -12.65568,38.47637 -11.44676,58.23383 0.74976,12.25305 6.82932,23.59803 11.44676,34.9403 6.53002,16.04038 -1.82702,43.99047 16.88397,46.58707 5.70479,0.79168 11.44674,-11.64677 11.44674,-11.64677 l 0,-151.40796 c 0,0 -5.70031,-12.14047 -11.44674,-11.64677 z"
       style="fill:#f2f2f2;fill-rule:evenodd;stroke:#000000;stroke-width:1.15463209px;stroke-linecap:butt;stroke-linejoin:miter;stroke-opacity:1" />
    <g
       id="g3672"
       transform="matrix(0.73607538,0,0,0.73607538,-4.9012389,256.19631)">
      <path
         sodipodi:nodetypes="cccccsscccccc"
         inkscape:connector-curvature="0"
         id="path3674"
         d="m 300,492.3622 20,-20 20,-20 0,-20 c 1.83801,-2.99064 3.39363,-1.11184 0,-14.56577 -6.56583,-1.19097 -13.34708,1.65476 -16.33656,-0.0116 -5.37146,-2.9941 -7.52435,-11.78121 0.68991,-16.67862 3.04641,-1.8163 10.8328,-0.61205 15.64665,-1.95122 8.48409,-20.1206 4.59502,-37.13546 0,-46.79278 l 0,-20 -60,40 0,110 z"
         style="fill:#803300;fill-rule:evenodd;stroke:#000000;stroke-width:1px;stroke-linecap:butt;stroke-linejoin:miter;stroke-opacity:1" />
      <path
         sodipodi:nodetypes="ccccccccccccc"
         inkscape:connector-curvature="0"
         id="path3676"
         d="m 170,372.3622 20,-20 c -1.02588,-9.74369 7.76536,-15.56052 20,-20 l 20,0 c 18.91137,-7.12909 24.00975,-3.2078 30,0 l 20,0 c 25.36508,-6.58503 21.18519,-0.50794 30,0 l 20,0 10,0 c -3.90965,7.58567 -8.24288,15.03015 -20,20 l -12,6 -8,14 c -34.99653,7.14583 -59.81713,23.01389 -130,0 z"
         style="fill:#2b1100;fill-rule:evenodd;stroke:#000000;stroke-width:1px;stroke-linecap:butt;stroke-linejoin:miter;stroke-opacity:1" />
      <path
         sodipodi:nodetypes="ccccccccccccccccc"
         inkscape:connector-curvature="0"
         id="path3678"
         d="m 170,372.3622 c 9.19805,-1.6039 18.21773,-3.56455 30,0 13.33333,10.33319 26.66667,1.74123 40,0 13.33333,-9.0659 26.66667,-0.4174 40,0 4.22894,1.39299 -1.13314,8.26655 20,0 9.58912,10 2.97744,20 0,30 -1.36622,11.57627 1.89596,21.06948 0,30 1.77847,10 1.03654,20 0,30 -2.66666,10 -2.66667,20 0,30 -6.66667,4.59502 -13.33333,8.48408 -20,0 -16.33417,-2.76046 -29.21214,0.77167 -40,0 -15.2272,4.66194 -30.69302,3.38225 -40,0 l -30,0 c 5.33334,-9.33334 5.33332,-16 0,-20 -0.33668,-9.18813 -4.53518,-20.28125 0,-40 0.50794,-9.83069 6.58503,-17.80499 0,-30 0,-10 -3.20779,-21.6039 0,-30 z"
         style="fill:#552200;fill-rule:evenodd;stroke:#000000;stroke-width:1px;stroke-linecap:butt;stroke-linejoin:miter;stroke-opacity:1" />
    </g>
    <path
       sodipodi:nodetypes="sssssccs"
       inkscape:connector-curvature="0"
       id="path3680"
       d="m 232.92988,467.26711 c 13.69597,1.35617 17.63607,21.63909 22.90292,34.35439 7.44846,17.98215 12.66089,37.83117 11.45147,57.25731 -0.75006,12.04758 -6.83213,23.20232 -11.45147,34.35439 -6.53272,15.77139 -6.05252,43.07141 -22.90292,45.80585 -5.32857,0.86471 -11.45146,-11.45147 -11.45146,-11.45147 l 0,-148.869 c 0,0 6.07946,-11.9834 11.45146,-11.45147 z"
       style="fill:#f2f2f2;fill-rule:evenodd;stroke:#000000;stroke-width:1.14514625px;stroke-linecap:butt;stroke-linejoin:miter;stroke-opacity:1" />
    <g
       id="g3682"
       transform="matrix(0.73607538,0,0,0.73607538,110.09876,252.19631)">
      <path
         sodipodi:nodetypes="cccccsscccccc"
         inkscape:connector-curvature="0"
         id="path3684"
         d="m 300,492.3622 20,-20 20,-20 0,-20 c 1.83801,-2.99064 3.39363,-1.11184 0,-14.56577 -6.56583,-1.19097 -13.34708,1.65476 -16.33656,-0.0116 -5.37146,-2.9941 -7.52435,-11.78121 0.68991,-16.67862 3.04641,-1.8163 10.8328,-0.61205 15.64665,-1.95122 8.48409,-20.1206 4.59502,-37.13546 0,-46.79278 l 0,-20 -60,40 0,110 z"
         style="fill:#803300;fill-rule:evenodd;stroke:#000000;stroke-width:1px;stroke-linecap:butt;stroke-linejoin:miter;stroke-opacity:1" />
      <path
         sodipodi:nodetypes="ccccccccccccc"
         inkscape:connector-curvature="0"
         id="path3686"
         d="m 170,372.3622 20,-20 c -1.02588,-9.74369 7.76536,-15.56052 20,-20 l 20,0 c 18.91137,-7.12909 24.00975,-3.2078 30,0 l 20,0 c 25.36508,-6.58503 21.18519,-0.50794 30,0 l 20,0 10,0 c -3.90965,7.58567 -8.24288,15.03015 -20,20 l -12,6 -8,14 c -34.99653,7.14583 -59.81713,23.01389 -130,0 z"
         style="fill:#2b1100;fill-rule:evenodd;stroke:#000000;stroke-width:1px;stroke-linecap:butt;stroke-linejoin:miter;stroke-opacity:1" />
      <path
         sodipodi:nodetypes="ccccccccccccccccc"
         inkscape:connector-curvature="0"
         id="path3688"
         d="m 170,372.3622 c 9.19805,-1.6039 18.21773,-3.56455 30,0 13.33333,10.33319 26.66667,1.74123 40,0 13.33333,-9.0659 26.66667,-0.4174 40,0 4.22894,1.39299 -1.13314,8.26655 20,0 9.58912,10 2.97744,20 0,30 -1.36622,11.57627 1.89596,21.06948 0,30 1.77847,10 1.03654,20 0,30 -2.66666,10 -2.66667,20 0,30 -6.66667,4.59502 -13.33333,8.48408 -20,0 -16.33417,-2.76046 -29.21214,0.77167 -40,0 -15.2272,4.66194 -30.69302,3.38225 -40,0 l -30,0 c 5.33334,-9.33334 5.33332,-16 0,-20 -0.33668,-9.18813 -4.53518,-20.28125 0,-40 0.50794,-9.83069 6.58503,-17.80499 0,-30 0,-10 -3.20779,-21.6039 0,-30 z"
         style="fill:#552200;fill-rule:evenodd;stroke:#000000;stroke-width:1px;stroke-linecap:butt;stroke-linejoin:miter;stroke-opacity:1" />
    </g>
    <ellipse
       style="opacity:1;fill:#ff0000;fill-opacity:1;stroke:none;stroke-width:1;stroke-linecap:round;stroke-linejoin:bevel;stroke-miterlimit:4;stroke-dasharray:none;stroke-dashoffset:0;stroke-opacity:1"
       id="ellipse3690"
       cx="353.91589"
       cy="549.65894"
       rx="25"
       ry="91.5" />
    <ellipse
       ry="91.5"
       rx="25"
       cy="549.65894"
       cx="361.91589"
       id="ellipse3692"
       style="opacity:1;fill:#ff0000;fill-opacity:1;stroke:none;stroke-width:1;stroke-linecap:round;stroke-linejoin:bevel;stroke-miterlimit:4;stroke-dasharray:none;stroke-dashoffset:0;stroke-opacity:1" />
    <path
       style="fill:#f2f2f2;fill-rule:evenodd;stroke:#000000;stroke-width:1.21775389px;stroke-linecap:butt;stroke-linejoin:miter;stroke-opacity:1"
       d="m 367.98448,444.33063 c -14.9784,1.43594 -11.60093,24.51897 -16.85729,38.92651 -7.43362,20.37533 -12.63567,42.86599 -11.42866,64.8775 0.74857,13.65095 6.81852,26.29024 11.42866,38.9265 6.5197,17.87036 -1.82413,49.00917 16.85729,51.90201 5.69577,0.882 11.42865,-12.97551 11.42865,-12.97551 l 0,-168.6815 c 0,0 -5.6913,-13.52553 -11.42865,-12.97551 z"
       id="path3694"
       inkscape:connector-curvature="0"
       sodipodi:nodetypes="sssssccs" />
    <g
       transform="matrix(0.73607538,0,0,0.73607538,220.09876,256.19631)"
       id="g3696">
      <path
         style="fill:#803300;fill-rule:evenodd;stroke:#000000;stroke-width:1px;stroke-linecap:butt;stroke-linejoin:miter;stroke-opacity:1"
         d="m 300,492.3622 20,-20 20,-20 0,-20 c 1.83801,-2.99064 3.39363,-1.11184 0,-14.56577 -6.56583,-1.19097 -13.34708,1.65476 -16.33656,-0.0116 -5.37146,-2.9941 -7.52435,-11.78121 0.68991,-16.67862 3.04641,-1.8163 10.8328,-0.61205 15.64665,-1.95122 8.48409,-20.1206 4.59502,-37.13546 0,-46.79278 l 0,-20 -60,40 0,110 z"
         id="path3698"
         inkscape:connector-curvature="0"
         sodipodi:nodetypes="cccccsscccccc" />
      <path
         style="fill:#2b1100;fill-rule:evenodd;stroke:#000000;stroke-width:1px;stroke-linecap:butt;stroke-linejoin:miter;stroke-opacity:1"
         d="m 170,372.3622 20,-20 c -1.02588,-9.74369 7.76536,-15.56052 20,-20 l 20,0 c 18.91137,-7.12909 24.00975,-3.2078 30,0 l 20,0 c 25.36508,-6.58503 21.18519,-0.50794 30,0 l 20,0 10,0 c -3.90965,7.58567 -8.24288,15.03015 -20,20 l -12,6 -8,14 c -34.99653,7.14583 -59.81713,23.01389 -130,0 z"
         id="path3700"
         inkscape:connector-curvature="0"
         sodipodi:nodetypes="ccccccccccccc" />
      <path
         style="fill:#552200;fill-rule:evenodd;stroke:#000000;stroke-width:1px;stroke-linecap:butt;stroke-linejoin:miter;stroke-opacity:1"
         d="m 170,372.3622 c 9.19805,-1.6039 18.21773,-3.56455 30,0 13.33333,10.33319 26.66667,1.74123 40,0 13.33333,-9.0659 26.66667,-0.4174 40,0 4.22894,1.39299 -1.13314,8.26655 20,0 9.58912,10 2.97744,20 0,30 -1.36622,11.57627 1.89596,21.06948 0,30 1.77847,10 1.03654,20 0,30 -2.66666,10 -2.66667,20 0,30 -6.66667,4.59502 -13.33333,8.48408 -20,0 -16.33417,-2.76046 -29.21214,0.77167 -40,0 -15.2272,4.66194 -30.69302,3.38225 -40,0 l -30,0 c 5.33334,-9.33334 5.33332,-16 0,-20 -0.33668,-9.18813 -4.53518,-20.28125 0,-40 0.50794,-9.83069 6.58503,-17.80499 0,-30 0,-10 -3.20779,-21.6039 0,-30 z"
         id="path3702"
         inkscape:connector-curvature="0"
         sodipodi:nodetypes="ccccccccccccccccc" />
    </g>
    <path
       sodipodi:nodetypes="ccc"
       inkscape:connector-curvature="0"
       id="path3704"
       d="m 649.04303,536.65896 c -0.57298,15.9881 -3.31862,28.45237 1.5,40.5 l -1,0.5"
       style="fill:none;fill-rule:evenodd;stroke:#000000;stroke-width:0.5;stroke-linecap:butt;stroke-linejoin:miter;stroke-opacity:1" />
    <path
       style="fill:none;fill-rule:evenodd;stroke:#000000;stroke-width:0.5;stroke-linecap:butt;stroke-linejoin:miter;stroke-opacity:1"
       d="m 691.04303,536.65896 c -1.15778,18.4758 0.0305,29.90526 1.5,40.5 l -1,0.5"
       id="path3706"
       inkscape:connector-curvature="0"
       sodipodi:nodetypes="ccc" />
    <ellipse
       ry="21"
       rx="4.5"
       cy="557.15894"
       cx="775.04303"
       id="ellipse3708"
       style="opacity:1;fill:#aa4400;fill-opacity:1;stroke:none;stroke-width:0.5;stroke-linecap:round;stroke-linejoin:bevel;stroke-miterlimit:4;stroke-dasharray:none;stroke-dashoffset:0;stroke-opacity:1" />
  </g>
  <g
     transform="matrix(0.31440032,0.05215479,-0.05215479,0.31440032,215.70707,123.70818)"
     id="g3514">
    <g
       id="g3516"
       transform="matrix(1.3945325,0,0,0.66565207,-340.58799,189.48356)">
      <path
         inkscape:connector-curvature="0"
         id="path3518"
         d="m 30,552.3622 30,-10 590,0 0,20 -590,0 z"
         style="fill:#cccccc;fill-rule:evenodd;stroke:#000000;stroke-width:1px;stroke-linecap:butt;stroke-linejoin:miter;stroke-opacity:1" />
      <path
         inkscape:connector-curvature="0"
         id="path3520"
         d="m 60,542.3622 0,20 -30,-10 z"
         style="fill:#b3b3b3;fill-rule:evenodd;stroke:#000000;stroke-width:1px;stroke-linecap:butt;stroke-linejoin:miter;stroke-opacity:1" />
      <path
         sodipodi:nodetypes="cc"
         inkscape:connector-curvature="0"
         id="path3522"
         d="m 30,552.3622 620,0"
         style="fill:none;fill-rule:evenodd;stroke:#000000;stroke-width:1px;stroke-linecap:butt;stroke-linejoin:miter;stroke-opacity:1" />
      <path
         sodipodi:nodetypes="ccccccccccccc"
         inkscape:connector-curvature="0"
         id="path3524"
         d="m 650,522.3622 c -0.49369,10.91732 -4.94033,23.64676 0,60 l 30,0 c 10,-5.23039 20,-7.97921 30,0 10,-3.57292 20,-11.50694 30,0 10,-6.27647 20,-9.57506 30,0 l 30,0 c 0.68949,-9.89798 -3.23903,-21.34449 0,-60 l -30,0 c -10,12.47591 -20,5.61364 -30,0 -10,9.57506 -20,6.27647 -30,0 -10,8 -20,8 -30,0 z"
         style="fill:#ff7f2a;fill-rule:evenodd;stroke:#000000;stroke-width:1px;stroke-linecap:butt;stroke-linejoin:miter;stroke-opacity:1" />
      <path
         sodipodi:nodetypes="cc"
         inkscape:connector-curvature="0"
         id="path3526"
         d="m 680,522.3622 c 0.58373,10.39873 -2.58069,20.92402 0,60"
         style="fill:none;fill-rule:evenodd;stroke:#000000;stroke-width:1px;stroke-linecap:butt;stroke-linejoin:miter;stroke-opacity:1" />
      <path
         sodipodi:nodetypes="cc"
         inkscape:connector-curvature="0"
         id="path3528"
         d="m 770,522.3622 c 0.086,15.87129 -3.09328,32.94464 0,60"
         style="fill:none;fill-rule:evenodd;stroke:#000000;stroke-width:1px;stroke-linecap:butt;stroke-linejoin:miter;stroke-opacity:1" />
    </g>
    <ellipse
       ry="91.5"
       rx="25"
       cy="545.65894"
       cx="-212.08409"
       id="ellipse3530"
       style="opacity:1;fill:#ff0000;fill-opacity:1;stroke:none;stroke-width:1;stroke-linecap:round;stroke-linejoin:bevel;stroke-miterlimit:4;stroke-dasharray:none;stroke-dashoffset:0;stroke-opacity:1" />
    <ellipse
       style="opacity:1;fill:#ff0000;fill-opacity:1;stroke:none;stroke-width:1;stroke-linecap:round;stroke-linejoin:bevel;stroke-miterlimit:4;stroke-dasharray:none;stroke-dashoffset:0;stroke-opacity:1"
       id="ellipse3532"
       cx="-204.08409"
       cy="545.65894"
       rx="25"
       ry="91.5" />
    <path
       sodipodi:nodetypes="sssssccs"
       inkscape:connector-curvature="0"
       id="path3534"
       d="m -198.00204,460.29738 c -15.0021,1.28889 -11.61928,22.00814 -16.88396,34.9403 -7.44539,18.28883 -12.65568,38.47637 -11.44676,58.23383 0.74976,12.25305 6.82932,23.59803 11.44676,34.9403 6.53002,16.04038 -1.82702,43.99047 16.88396,46.58707 5.70479,0.79168 11.44674,-11.64677 11.44674,-11.64677 l 0,-151.40796 c 0,0 -5.70031,-12.14047 -11.44674,-11.64677 z"
       style="fill:#f2f2f2;fill-rule:evenodd;stroke:#000000;stroke-width:1.15463209px;stroke-linecap:butt;stroke-linejoin:miter;stroke-opacity:1" />
    <g
       id="g3536"
       transform="matrix(0.73607538,0,0,0.73607538,-345.90123,252.19631)">
      <path
         sodipodi:nodetypes="cccccsscccccc"
         inkscape:connector-curvature="0"
         id="path3538"
         d="m 300,492.3622 20,-20 20,-20 0,-20 c 1.83801,-2.99064 3.39363,-1.11184 0,-14.56577 -6.56583,-1.19097 -13.34708,1.65476 -16.33656,-0.0116 -5.37146,-2.9941 -7.52435,-11.78121 0.68991,-16.67862 3.04641,-1.8163 10.8328,-0.61205 15.64665,-1.95122 8.48409,-20.1206 4.59502,-37.13546 0,-46.79278 l 0,-20 -60,40 0,110 z"
         style="fill:#803300;fill-rule:evenodd;stroke:#000000;stroke-width:1px;stroke-linecap:butt;stroke-linejoin:miter;stroke-opacity:1" />
      <path
         sodipodi:nodetypes="ccccccccccccc"
         inkscape:connector-curvature="0"
         id="path3540"
         d="m 170,372.3622 20,-20 c -1.02588,-9.74369 7.76536,-15.56052 20,-20 l 20,0 c 18.91137,-7.12909 24.00975,-3.2078 30,0 l 20,0 c 25.36508,-6.58503 21.18519,-0.50794 30,0 l 20,0 10,0 c -3.90965,7.58567 -8.24288,15.03015 -20,20 l -12,6 -8,14 c -34.99653,7.14583 -59.81713,23.01389 -130,0 z"
         style="fill:#2b1100;fill-rule:evenodd;stroke:#000000;stroke-width:1px;stroke-linecap:butt;stroke-linejoin:miter;stroke-opacity:1" />
      <path
         sodipodi:nodetypes="ccccccccccccccccc"
         inkscape:connector-curvature="0"
         id="path3542"
         d="m 170,372.3622 c 9.19805,-1.6039 18.21773,-3.56455 30,0 13.33333,10.33319 26.66667,1.74123 40,0 13.33333,-9.0659 26.66667,-0.4174 40,0 4.22894,1.39299 -1.13314,8.26655 20,0 9.58912,10 2.97744,20 0,30 -1.36622,11.57627 1.89596,21.06948 0,30 1.77847,10 1.03654,20 0,30 -2.66666,10 -2.66667,20 0,30 -6.66667,4.59502 -13.33333,8.48408 -20,0 -16.33417,-2.76046 -29.21214,0.77167 -40,0 -15.2272,4.66194 -30.69302,3.38225 -40,0 l -30,0 c 5.33334,-9.33334 5.33332,-16 0,-20 -0.33668,-9.18813 -4.53518,-20.28125 0,-40 0.50794,-9.83069 6.58503,-17.80499 0,-30 0,-10 -3.20779,-21.6039 0,-30 z"
         style="fill:#552200;fill-rule:evenodd;stroke:#000000;stroke-width:1px;stroke-linecap:butt;stroke-linejoin:miter;stroke-opacity:1" />
    </g>
    <path
       sodipodi:nodetypes="sssssccs"
       inkscape:connector-curvature="0"
       id="path3544"
       d="m -108.07012,463.26711 c 13.695971,1.35617 17.636071,21.63909 22.902921,34.35439 7.44846,17.98215 12.66089,37.83117 11.45147,57.25731 -0.75006,12.04758 -6.83213,23.20232 -11.45147,34.35439 -6.53272,15.77139 -6.05252,43.07141 -22.902921,45.80585 -5.32857,0.86471 -11.45146,-11.45147 -11.45146,-11.45147 l 0,-148.869 c 0,0 6.07946,-11.9834 11.45146,-11.45147 z"
       style="fill:#f2f2f2;fill-rule:evenodd;stroke:#000000;stroke-width:1.14514625px;stroke-linecap:butt;stroke-linejoin:miter;stroke-opacity:1" />
    <g
       id="g3546"
       transform="matrix(0.73607538,0,0,0.73607538,-230.90123,248.19631)">
      <path
         sodipodi:nodetypes="cccccsscccccc"
         inkscape:connector-curvature="0"
         id="path3548"
         d="m 300,492.3622 20,-20 20,-20 0,-20 c 1.83801,-2.99064 3.39363,-1.11184 0,-14.56577 -6.56583,-1.19097 -13.34708,1.65476 -16.33656,-0.0116 -5.37146,-2.9941 -7.52435,-11.78121 0.68991,-16.67862 3.04641,-1.8163 10.8328,-0.61205 15.64665,-1.95122 8.48409,-20.1206 4.59502,-37.13546 0,-46.79278 l 0,-20 -60,40 0,110 z"
         style="fill:#803300;fill-rule:evenodd;stroke:#000000;stroke-width:1px;stroke-linecap:butt;stroke-linejoin:miter;stroke-opacity:1" />
      <path
         sodipodi:nodetypes="ccccccccccccc"
         inkscape:connector-curvature="0"
         id="path3550"
         d="m 170,372.3622 20,-20 c -1.02588,-9.74369 7.76536,-15.56052 20,-20 l 20,0 c 18.91137,-7.12909 24.00975,-3.2078 30,0 l 20,0 c 25.36508,-6.58503 21.18519,-0.50794 30,0 l 20,0 10,0 c -3.90965,7.58567 -8.24288,15.03015 -20,20 l -12,6 -8,14 c -34.99653,7.14583 -59.81713,23.01389 -130,0 z"
         style="fill:#2b1100;fill-rule:evenodd;stroke:#000000;stroke-width:1px;stroke-linecap:butt;stroke-linejoin:miter;stroke-opacity:1" />
      <path
         sodipodi:nodetypes="ccccccccccccccccc"
         inkscape:connector-curvature="0"
         id="path3552"
         d="m 170,372.3622 c 9.19805,-1.6039 18.21773,-3.56455 30,0 13.33333,10.33319 26.66667,1.74123 40,0 13.33333,-9.0659 26.66667,-0.4174 40,0 4.22894,1.39299 -1.13314,8.26655 20,0 9.58912,10 2.97744,20 0,30 -1.36622,11.57627 1.89596,21.06948 0,30 1.77847,10 1.03654,20 0,30 -2.66666,10 -2.66667,20 0,30 -6.66667,4.59502 -13.33333,8.48408 -20,0 -16.33417,-2.76046 -29.21214,0.77167 -40,0 -15.2272,4.66194 -30.69302,3.38225 -40,0 l -30,0 c 5.33334,-9.33334 5.33332,-16 0,-20 -0.33668,-9.18813 -4.53518,-20.28125 0,-40 0.50794,-9.83069 6.58503,-17.80499 0,-30 0,-10 -3.20779,-21.6039 0,-30 z"
         style="fill:#552200;fill-rule:evenodd;stroke:#000000;stroke-width:1px;stroke-linecap:butt;stroke-linejoin:miter;stroke-opacity:1" />
    </g>
    <ellipse
       style="opacity:1;fill:#ff0000;fill-opacity:1;stroke:none;stroke-width:1;stroke-linecap:round;stroke-linejoin:bevel;stroke-miterlimit:4;stroke-dasharray:none;stroke-dashoffset:0;stroke-opacity:1"
       id="ellipse3554"
       cx="12.915895"
       cy="545.65894"
       rx="25"
       ry="91.5" />
    <ellipse
       ry="91.5"
       rx="25"
       cy="545.65894"
       cx="20.915895"
       id="ellipse3556"
       style="opacity:1;fill:#ff0000;fill-opacity:1;stroke:none;stroke-width:1;stroke-linecap:round;stroke-linejoin:bevel;stroke-miterlimit:4;stroke-dasharray:none;stroke-dashoffset:0;stroke-opacity:1" />
    <path
       style="fill:#f2f2f2;fill-rule:evenodd;stroke:#000000;stroke-width:1.21775389px;stroke-linecap:butt;stroke-linejoin:miter;stroke-opacity:1"
       d="m 26.984481,440.33063 c -14.9784,1.43594 -11.60093,24.51897 -16.85729,38.92651 -7.4336199,20.37533 -12.6356699,42.86599 -11.4286599,64.8775 0.74857003,13.65095 6.81852,26.29024 11.4286599,38.9265 6.5197,17.87036 -1.8241299,49.00917 16.85729,51.90201 5.69577,0.882 11.42865,-12.97551 11.42865,-12.97551 l 0,-168.6815 c 0,0 -5.6913,-13.52553 -11.42865,-12.97551 z"
       id="path3558"
       inkscape:connector-curvature="0"
       sodipodi:nodetypes="sssssccs" />
    <g
       transform="matrix(0.73607538,0,0,0.73607538,-120.90124,252.19631)"
       id="g3560">
      <path
         style="fill:#803300;fill-rule:evenodd;stroke:#000000;stroke-width:1px;stroke-linecap:butt;stroke-linejoin:miter;stroke-opacity:1"
         d="m 300,492.3622 20,-20 20,-20 0,-20 c 1.83801,-2.99064 3.39363,-1.11184 0,-14.56577 -6.56583,-1.19097 -13.34708,1.65476 -16.33656,-0.0116 -5.37146,-2.9941 -7.52435,-11.78121 0.68991,-16.67862 3.04641,-1.8163 10.8328,-0.61205 15.64665,-1.95122 8.48409,-20.1206 4.59502,-37.13546 0,-46.79278 l 0,-20 -60,40 0,110 z"
         id="path3562"
         inkscape:connector-curvature="0"
         sodipodi:nodetypes="cccccsscccccc" />
      <path
         style="fill:#2b1100;fill-rule:evenodd;stroke:#000000;stroke-width:1px;stroke-linecap:butt;stroke-linejoin:miter;stroke-opacity:1"
         d="m 170,372.3622 20,-20 c -1.02588,-9.74369 7.76536,-15.56052 20,-20 l 20,0 c 18.91137,-7.12909 24.00975,-3.2078 30,0 l 20,0 c 25.36508,-6.58503 21.18519,-0.50794 30,0 l 20,0 10,0 c -3.90965,7.58567 -8.24288,15.03015 -20,20 l -12,6 -8,14 c -34.99653,7.14583 -59.81713,23.01389 -130,0 z"
         id="path3564"
         inkscape:connector-curvature="0"
         sodipodi:nodetypes="ccccccccccccc" />
      <path
         style="fill:#552200;fill-rule:evenodd;stroke:#000000;stroke-width:1px;stroke-linecap:butt;stroke-linejoin:miter;stroke-opacity:1"
         d="m 170,372.3622 c 9.19805,-1.6039 18.21773,-3.56455 30,0 13.33333,10.33319 26.66667,1.74123 40,0 13.33333,-9.0659 26.66667,-0.4174 40,0 4.22894,1.39299 -1.13314,8.26655 20,0 9.58912,10 2.97744,20 0,30 -1.36622,11.57627 1.89596,21.06948 0,30 1.77847,10 1.03654,20 0,30 -2.66666,10 -2.66667,20 0,30 -6.66667,4.59502 -13.33333,8.48408 -20,0 -16.33417,-2.76046 -29.21214,0.77167 -40,0 -15.2272,4.66194 -30.69302,3.38225 -40,0 l -30,0 c 5.33334,-9.33334 5.33332,-16 0,-20 -0.33668,-9.18813 -4.53518,-20.28125 0,-40 0.50794,-9.83069 6.58503,-17.80499 0,-30 0,-10 -3.20779,-21.6039 0,-30 z"
         id="path3566"
         inkscape:connector-curvature="0"
         sodipodi:nodetypes="ccccccccccccccccc" />
    </g>
    <ellipse
       style="opacity:1;fill:#ff0000;fill-opacity:1;stroke:none;stroke-width:1;stroke-linecap:round;stroke-linejoin:bevel;stroke-miterlimit:4;stroke-dasharray:none;stroke-dashoffset:0;stroke-opacity:1"
       id="ellipse3568"
       cx="128.91589"
       cy="549.65894"
       rx="25"
       ry="91.5" />
    <ellipse
       ry="91.5"
       rx="25"
       cy="549.65894"
       cx="136.91589"
       id="ellipse3570"
       style="opacity:1;fill:#ff0000;fill-opacity:1;stroke:none;stroke-width:1;stroke-linecap:round;stroke-linejoin:bevel;stroke-miterlimit:4;stroke-dasharray:none;stroke-dashoffset:0;stroke-opacity:1" />
    <path
       style="fill:#f2f2f2;fill-rule:evenodd;stroke:#000000;stroke-width:1.15463209px;stroke-linecap:butt;stroke-linejoin:miter;stroke-opacity:1"
       d="m 142.99796,464.29738 c -15.00211,1.28889 -11.61929,22.00814 -16.88397,34.9403 -7.44539,18.28883 -12.65568,38.47637 -11.44676,58.23383 0.74976,12.25305 6.82932,23.59803 11.44676,34.9403 6.53002,16.04038 -1.82702,43.99047 16.88397,46.58707 5.70479,0.79168 11.44674,-11.64677 11.44674,-11.64677 l 0,-151.40796 c 0,0 -5.70031,-12.14047 -11.44674,-11.64677 z"
       id="path3572"
       inkscape:connector-curvature="0"
       sodipodi:nodetypes="sssssccs" />
    <g
       transform="matrix(0.73607538,0,0,0.73607538,-4.9012389,256.19631)"
       id="g3574">
      <path
         style="fill:#803300;fill-rule:evenodd;stroke:#000000;stroke-width:1px;stroke-linecap:butt;stroke-linejoin:miter;stroke-opacity:1"
         d="m 300,492.3622 20,-20 20,-20 0,-20 c 1.83801,-2.99064 3.39363,-1.11184 0,-14.56577 -6.56583,-1.19097 -13.34708,1.65476 -16.33656,-0.0116 -5.37146,-2.9941 -7.52435,-11.78121 0.68991,-16.67862 3.04641,-1.8163 10.8328,-0.61205 15.64665,-1.95122 8.48409,-20.1206 4.59502,-37.13546 0,-46.79278 l 0,-20 -60,40 0,110 z"
         id="path3576"
         inkscape:connector-curvature="0"
         sodipodi:nodetypes="cccccsscccccc" />
      <path
         style="fill:#2b1100;fill-rule:evenodd;stroke:#000000;stroke-width:1px;stroke-linecap:butt;stroke-linejoin:miter;stroke-opacity:1"
         d="m 170,372.3622 20,-20 c -1.02588,-9.74369 7.76536,-15.56052 20,-20 l 20,0 c 18.91137,-7.12909 24.00975,-3.2078 30,0 l 20,0 c 25.36508,-6.58503 21.18519,-0.50794 30,0 l 20,0 10,0 c -3.90965,7.58567 -8.24288,15.03015 -20,20 l -12,6 -8,14 c -34.99653,7.14583 -59.81713,23.01389 -130,0 z"
         id="path3578"
         inkscape:connector-curvature="0"
         sodipodi:nodetypes="ccccccccccccc" />
      <path
         style="fill:#552200;fill-rule:evenodd;stroke:#000000;stroke-width:1px;stroke-linecap:butt;stroke-linejoin:miter;stroke-opacity:1"
         d="m 170,372.3622 c 9.19805,-1.6039 18.21773,-3.56455 30,0 13.33333,10.33319 26.66667,1.74123 40,0 13.33333,-9.0659 26.66667,-0.4174 40,0 4.22894,1.39299 -1.13314,8.26655 20,0 9.58912,10 2.97744,20 0,30 -1.36622,11.57627 1.89596,21.06948 0,30 1.77847,10 1.03654,20 0,30 -2.66666,10 -2.66667,20 0,30 -6.66667,4.59502 -13.33333,8.48408 -20,0 -16.33417,-2.76046 -29.21214,0.77167 -40,0 -15.2272,4.66194 -30.69302,3.38225 -40,0 l -30,0 c 5.33334,-9.33334 5.33332,-16 0,-20 -0.33668,-9.18813 -4.53518,-20.28125 0,-40 0.50794,-9.83069 6.58503,-17.80499 0,-30 0,-10 -3.20779,-21.6039 0,-30 z"
         id="path3580"
         inkscape:connector-curvature="0"
         sodipodi:nodetypes="ccccccccccccccccc" />
    </g>
    <path
       style="fill:#f2f2f2;fill-rule:evenodd;stroke:#000000;stroke-width:1.14514625px;stroke-linecap:butt;stroke-linejoin:miter;stroke-opacity:1"
       d="m 232.92988,467.26711 c 13.69597,1.35617 17.63607,21.63909 22.90292,34.35439 7.44846,17.98215 12.66089,37.83117 11.45147,57.25731 -0.75006,12.04758 -6.83213,23.20232 -11.45147,34.35439 -6.53272,15.77139 -6.05252,43.07141 -22.90292,45.80585 -5.32857,0.86471 -11.45146,-11.45147 -11.45146,-11.45147 l 0,-148.869 c 0,0 6.07946,-11.9834 11.45146,-11.45147 z"
       id="path3582"
       inkscape:connector-curvature="0"
       sodipodi:nodetypes="sssssccs" />
    <g
       transform="matrix(0.73607538,0,0,0.73607538,110.09876,252.19631)"
       id="g3584">
      <path
         style="fill:#803300;fill-rule:evenodd;stroke:#000000;stroke-width:1px;stroke-linecap:butt;stroke-linejoin:miter;stroke-opacity:1"
         d="m 300,492.3622 20,-20 20,-20 0,-20 c 1.83801,-2.99064 3.39363,-1.11184 0,-14.56577 -6.56583,-1.19097 -13.34708,1.65476 -16.33656,-0.0116 -5.37146,-2.9941 -7.52435,-11.78121 0.68991,-16.67862 3.04641,-1.8163 10.8328,-0.61205 15.64665,-1.95122 8.48409,-20.1206 4.59502,-37.13546 0,-46.79278 l 0,-20 -60,40 0,110 z"
         id="path3586"
         inkscape:connector-curvature="0"
         sodipodi:nodetypes="cccccsscccccc" />
      <path
         style="fill:#2b1100;fill-rule:evenodd;stroke:#000000;stroke-width:1px;stroke-linecap:butt;stroke-linejoin:miter;stroke-opacity:1"
         d="m 170,372.3622 20,-20 c -1.02588,-9.74369 7.76536,-15.56052 20,-20 l 20,0 c 18.91137,-7.12909 24.00975,-3.2078 30,0 l 20,0 c 25.36508,-6.58503 21.18519,-0.50794 30,0 l 20,0 10,0 c -3.90965,7.58567 -8.24288,15.03015 -20,20 l -12,6 -8,14 c -34.99653,7.14583 -59.81713,23.01389 -130,0 z"
         id="path3588"
         inkscape:connector-curvature="0"
         sodipodi:nodetypes="ccccccccccccc" />
      <path
         style="fill:#552200;fill-rule:evenodd;stroke:#000000;stroke-width:1px;stroke-linecap:butt;stroke-linejoin:miter;stroke-opacity:1"
         d="m 170,372.3622 c 9.19805,-1.6039 18.21773,-3.56455 30,0 13.33333,10.33319 26.66667,1.74123 40,0 13.33333,-9.0659 26.66667,-0.4174 40,0 4.22894,1.39299 -1.13314,8.26655 20,0 9.58912,10 2.97744,20 0,30 -1.36622,11.57627 1.89596,21.06948 0,30 1.77847,10 1.03654,20 0,30 -2.66666,10 -2.66667,20 0,30 -6.66667,4.59502 -13.33333,8.48408 -20,0 -16.33417,-2.76046 -29.21214,0.77167 -40,0 -15.2272,4.66194 -30.69302,3.38225 -40,0 l -30,0 c 5.33334,-9.33334 5.33332,-16 0,-20 -0.33668,-9.18813 -4.53518,-20.28125 0,-40 0.50794,-9.83069 6.58503,-17.80499 0,-30 0,-10 -3.20779,-21.6039 0,-30 z"
         id="path3590"
         inkscape:connector-curvature="0"
         sodipodi:nodetypes="ccccccccccccccccc" />
    </g>
    <ellipse
       ry="91.5"
       rx="25"
       cy="549.65894"
       cx="353.91589"
       id="ellipse3592"
       style="opacity:1;fill:#ff0000;fill-opacity:1;stroke:none;stroke-width:1;stroke-linecap:round;stroke-linejoin:bevel;stroke-miterlimit:4;stroke-dasharray:none;stroke-dashoffset:0;stroke-opacity:1" />
    <ellipse
       style="opacity:1;fill:#ff0000;fill-opacity:1;stroke:none;stroke-width:1;stroke-linecap:round;stroke-linejoin:bevel;stroke-miterlimit:4;stroke-dasharray:none;stroke-dashoffset:0;stroke-opacity:1"
       id="ellipse3594"
       cx="361.91589"
       cy="549.65894"
       rx="25"
       ry="91.5" />
    <path
       sodipodi:nodetypes="sssssccs"
       inkscape:connector-curvature="0"
       id="path3596"
       d="m 367.98448,444.33063 c -14.9784,1.43594 -11.60093,24.51897 -16.85729,38.92651 -7.43362,20.37533 -12.63567,42.86599 -11.42866,64.8775 0.74857,13.65095 6.81852,26.29024 11.42866,38.9265 6.5197,17.87036 -1.82413,49.00917 16.85729,51.90201 5.69577,0.882 11.42865,-12.97551 11.42865,-12.97551 l 0,-168.6815 c 0,0 -5.6913,-13.52553 -11.42865,-12.97551 z"
       style="fill:#f2f2f2;fill-rule:evenodd;stroke:#000000;stroke-width:1.21775389px;stroke-linecap:butt;stroke-linejoin:miter;stroke-opacity:1" />
    <g
       id="g3598"
       transform="matrix(0.73607538,0,0,0.73607538,220.09876,256.19631)">
      <path
         sodipodi:nodetypes="cccccsscccccc"
         inkscape:connector-curvature="0"
         id="path3600"
         d="m 300,492.3622 20,-20 20,-20 0,-20 c 1.83801,-2.99064 3.39363,-1.11184 0,-14.56577 -6.56583,-1.19097 -13.34708,1.65476 -16.33656,-0.0116 -5.37146,-2.9941 -7.52435,-11.78121 0.68991,-16.67862 3.04641,-1.8163 10.8328,-0.61205 15.64665,-1.95122 8.48409,-20.1206 4.59502,-37.13546 0,-46.79278 l 0,-20 -60,40 0,110 z"
         style="fill:#803300;fill-rule:evenodd;stroke:#000000;stroke-width:1px;stroke-linecap:butt;stroke-linejoin:miter;stroke-opacity:1" />
      <path
         sodipodi:nodetypes="ccccccccccccc"
         inkscape:connector-curvature="0"
         id="path3602"
         d="m 170,372.3622 20,-20 c -1.02588,-9.74369 7.76536,-15.56052 20,-20 l 20,0 c 18.91137,-7.12909 24.00975,-3.2078 30,0 l 20,0 c 25.36508,-6.58503 21.18519,-0.50794 30,0 l 20,0 10,0 c -3.90965,7.58567 -8.24288,15.03015 -20,20 l -12,6 -8,14 c -34.99653,7.14583 -59.81713,23.01389 -130,0 z"
         style="fill:#2b1100;fill-rule:evenodd;stroke:#000000;stroke-width:1px;stroke-linecap:butt;stroke-linejoin:miter;stroke-opacity:1" />
      <path
         sodipodi:nodetypes="ccccccccccccccccc"
         inkscape:connector-curvature="0"
         id="path3604"
         d="m 170,372.3622 c 9.19805,-1.6039 18.21773,-3.56455 30,0 13.33333,10.33319 26.66667,1.74123 40,0 13.33333,-9.0659 26.66667,-0.4174 40,0 4.22894,1.39299 -1.13314,8.26655 20,0 9.58912,10 2.97744,20 0,30 -1.36622,11.57627 1.89596,21.06948 0,30 1.77847,10 1.03654,20 0,30 -2.66666,10 -2.66667,20 0,30 -6.66667,4.59502 -13.33333,8.48408 -20,0 -16.33417,-2.76046 -29.21214,0.77167 -40,0 -15.2272,4.66194 -30.69302,3.38225 -40,0 l -30,0 c 5.33334,-9.33334 5.33332,-16 0,-20 -0.33668,-9.18813 -4.53518,-20.28125 0,-40 0.50794,-9.83069 6.58503,-17.80499 0,-30 0,-10 -3.20779,-21.6039 0,-30 z"
         style="fill:#552200;fill-rule:evenodd;stroke:#000000;stroke-width:1px;stroke-linecap:butt;stroke-linejoin:miter;stroke-opacity:1" />
    </g>
    <path
       style="fill:none;fill-rule:evenodd;stroke:#000000;stroke-width:0.5;stroke-linecap:butt;stroke-linejoin:miter;stroke-opacity:1"
       d="m 649.04303,536.65896 c -0.57298,15.9881 -3.31862,28.45237 1.5,40.5 l -1,0.5"
       id="path3606"
       inkscape:connector-curvature="0"
       sodipodi:nodetypes="ccc" />
    <path
       sodipodi:nodetypes="ccc"
       inkscape:connector-curvature="0"
       id="path3608"
       d="m 691.04303,536.65896 c -1.15778,18.4758 0.0305,29.90526 1.5,40.5 l -1,0.5"
       style="fill:none;fill-rule:evenodd;stroke:#000000;stroke-width:0.5;stroke-linecap:butt;stroke-linejoin:miter;stroke-opacity:1" />
    <ellipse
       style="opacity:1;fill:#aa4400;fill-opacity:1;stroke:none;stroke-width:0.5;stroke-linecap:round;stroke-linejoin:bevel;stroke-miterlimit:4;stroke-dasharray:none;stroke-dashoffset:0;stroke-opacity:1"
       id="ellipse3610"
       cx="775.04303"
       cy="557.15894"
       rx="4.5"
       ry="21" />
  </g>
  <g
     id="g4747"
     transform="matrix(0.65786838,-0.01525728,0.01525728,0.65786838,300.9951,154.93781)">
    <path
       transform="matrix(0.60454721,-0.79656932,0.79656932,0.60454721,-1041.5037,-0.35765)"
       sodipodi:nodetypes="cssccccssccccc"
       inkscape:connector-curvature="0"
       id="path2991-7"
       d="m 332.18961,533.14558 c 0,0 -44.22197,15.57404 -63.54131,33.02514 -5.5311,4.99624 -10.28315,11.19803 -13.17289,18.06862 -1.29234,3.07262 -1.65545,9.86202 -1.65545,9.86202 L 125.74987,681.0211 c 2.04924,5.72273 6.92291,9.40168 13.07161,12.15802 l 123.20507,-87.56029 c 0,0 6.53584,1.87366 9.86203,1.65543 7.43757,-0.48797 14.85107,-2.95456 21.37948,-6.55115 22.80276,-12.56232 52.1696,-50.2089 52.1696,-50.2089 -17.8511,12.38968 -31.97641,23.84488 -51.69031,31.53709 13.44314,-15.45947 30.49384,-23.95871 45.59661,-40.21982 -18.88757,10.63247 -37.44223,20.58149 -53.80318,28.70236 11.66104,-15.84024 29.11807,-24.38311 46.64883,-37.38826 z"
       style="fill:#000000;stroke:#000000;stroke-width:1px;stroke-linecap:butt;stroke-linejoin:miter;stroke-opacity:1;filter:url(#filter4840)" />
    <path
       transform="matrix(0.60454721,-0.79656932,0.79656932,0.60454721,-1041.5037,-0.35765)"
       style="fill:#f2f2f2;stroke:#000000;stroke-width:1px;stroke-linecap:butt;stroke-linejoin:miter;stroke-opacity:1;filter:url(#filter4840)"
       d="m 332.73449,532.23558 c 0,0 -44.28376,14.30078 -63.6031,31.75188 -5.53111,4.99624 -10.28316,11.19803 -13.1729,18.06862 -1.29233,3.07262 -1.65544,9.86202 -1.65544,9.86202 l -128.49774,88.12061 c 3.89336,5.99718 10.73912,9.17336 12.4386,12.72492 l 124.26572,-89.32806 c 0,0 6.53585,1.87365 9.86204,1.65543 7.43757,-0.48797 14.85107,-2.95456 21.37948,-6.55115 22.80276,-12.56233 51.98891,-48.87479 51.98891,-48.87479 -17.8511,12.38968 -31.79572,22.51077 -51.50962,30.20298 13.44314,-15.45947 30.13152,-22.32127 45.23429,-38.58238 -18.88757,10.63248 -37.07991,18.94405 -53.44086,27.06492 11.66103,-15.84024 29.17986,-23.10985 46.71062,-36.115 z"
       id="path2989-5"
       inkscape:connector-curvature="0"
       sodipodi:nodetypes="cssccccssccccc" />
    <g
       id="g4740">
      <path
         sodipodi:type="arc"
         style="color:#000000;display:inline;overflow:visible;visibility:visible;fill:#ececec;fill-opacity:1;fill-rule:nonzero;stroke:none;stroke-width:3;marker:none;filter:url(#filter4116);enable-background:accumulate"
         id="path3022"
         sodipodi:cx="-39.774757"
         sodipodi:cy="50.150356"
         sodipodi:rx="12.904698"
         sodipodi:ry="8.1317282"
         d="m -26.870059,50.150356 a 12.904698,8.1317282 0 0 1 -12.667561,8.130355 12.904698,8.1317282 0 0 1 -13.13312,-7.831548 12.904698,8.1317282 0 0 1 12.184892,-8.41818 12.904698,8.1317282 0 0 1 13.58094,7.522163"
         transform="matrix(0.83346265,0.74396661,-1.6608796,1.1346684,-290.72376,105.12255)"
         sodipodi:start="0"
         sodipodi:end="6.2096771"
         sodipodi:open="true" />
      <path
         style="fill:#ffffff;stroke:none;filter:url(#filter4840)"
         d="M 130.69441,678.48153 253.09924,595.18054 132.06752,682.5004 Z"
         id="path2993-3"
         inkscape:connector-curvature="0"
         sodipodi:nodetypes="cccc"
         transform="matrix(0.60454721,-0.79656932,0.79656932,0.60454721,-1041.5037,-0.35765)" />
      <path
         style="fill:#ffffff;stroke:none;filter:url(#filter4840)"
         d="m 257.12228,584.50991 c 0,0 4.13617,-9.75621 9.65672,-16.53239 11.44916,-14.05323 56.63196,-31.55912 56.63196,-31.55912 0,0 -41.28149,18.80631 -51.42601,31.34837 -6.5891,8.14636 -14.86267,16.74314 -14.86267,16.74314 z"
         id="path2995-5"
         inkscape:connector-curvature="0"
         sodipodi:nodetypes="cscsc"
         transform="matrix(0.60454721,-0.79656932,0.79656932,0.60454721,-1041.5037,-0.35765)" />
      <path
         style="fill:#ffffff;stroke:none;filter:url(#filter4840)"
         d="m 288.76666,568.86607 c 13.00245,-6.5853 47.71868,-24.51191 47.71868,-24.51191 0,0 -30.17776,19.01789 -45.38047,27.11187 -4.22135,2.24746 -4.92411,-1.29028 -2.33821,-2.59996 z"
         id="path2997"
         inkscape:connector-curvature="0"
         sodipodi:nodetypes="scss"
         transform="matrix(0.60454721,-0.79656932,0.79656932,0.60454721,-1041.5037,-0.35765)" />
      <path
         style="fill:#ffffff;stroke:none;filter:url(#filter4840)"
         d="m 295.71072,581.01969 c -5.48803,10.15523 37.28935,-19.22862 43.38258,-25.06369 -2.4974,1.65343 -42.20347,27.73948 -43.38258,25.06369 z"
         id="path2999-6"
         inkscape:connector-curvature="0"
         sodipodi:nodetypes="ccc"
         transform="matrix(0.60454721,-0.79656932,0.79656932,0.60454721,-1041.5037,-0.35765)" />
    </g>
    <path
       transform="matrix(0.60454721,-0.79656932,0.79656932,0.60454721,-1041.5037,-0.35765)"
       sodipodi:nodetypes="cscsc"
       inkscape:connector-curvature="0"
       id="path4732"
       d="m 266,601.36218 c 0,0 13.74345,-0.0516 20,-2.5 12.79202,-5.00586 33.5,-24 33.5,-24 0,0 -20.05169,21.82397 -33.5,26.5 -6.29688,2.18945 -20,0 -20,0 z"
       style="fill:#ffffff;stroke:none;filter:url(#filter4840)" />
  </g>
  <g
     style="filter:url(#filter4840)"
     id="g4761"
     transform="matrix(0.34327771,-0.45231288,0.45231288,0.34327771,75.903313,191.54337)">
    <path
       style="fill:#000000;stroke:#000000;stroke-width:1.16467369px;stroke-linecap:butt;stroke-linejoin:miter;stroke-opacity:1"
       d="m 194.05457,762.28924 134.72709,-96.33658 c 0,0 4.49938,-14.10861 5.10976,-18.40596 0.61038,-4.29735 3.03553,-8.31677 5.814,-11.65141 7.45542,-8.94781 17.26539,-16.31761 27.9353,-20.9866 3.97644,-1.74003 8.51218,-2.95003 12.80953,-2.33965 4.29735,0.61038 10.17912,1.63642 13.51377,4.41489 2.9826,2.48514 5.4392,5.75513 6.99553,9.31177 1.74003,3.97643 1.08768,9.91129 0.4773,14.20864 -0.61038,4.29734 -3.03553,8.31677 -5.814,11.65141 -7.45542,8.9478 -17.26539,16.31761 -27.9353,20.9866 -3.97644,1.74003 -8.51218,2.95003 -12.80953,2.33965 -4.29735,-0.61038 -19.10083,-0.21757 -19.10083,-0.21757 L 203.5501,774.601 c -6.67892,-2.30993 -9.51809,-8.77781 -9.49553,-12.31176 z"
       id="path4212"
       inkscape:connector-curvature="0"
       sodipodi:nodetypes="ccssssssssssccc" />
    <path
       sodipodi:nodetypes="ccssssssssssccc"
       inkscape:connector-curvature="0"
       id="path4210"
       d="M 194.35502,762.35806 328.0821,665.02149 c 0,0 4.49938,-14.10862 5.10977,-18.40596 0.61038,-4.29735 3.03553,-8.31677 5.814,-11.65142 7.45542,-8.9478 17.26538,-16.31761 27.9353,-20.9866 3.97643,-1.74003 8.51218,-2.95003 12.80953,-2.33965 4.29735,0.61038 10.17912,1.63643 13.51377,4.41489 2.98259,2.48514 5.4392,5.75514 6.99553,9.31177 1.74003,3.97644 1.08768,9.91129 0.4773,14.20864 -0.61038,4.29735 -3.03554,8.31677 -5.814,11.65142 -7.45542,8.9478 -17.26539,16.31761 -27.9353,20.9866 -3.97644,1.74002 -8.51219,2.95003 -12.80953,2.33965 -4.29735,-0.61038 -19.10083,-0.21758 -19.10083,-0.21758 l -132.22709,99.33658 z"
       style="fill:#f9f9f9;stroke:#000000;stroke-width:1.16467369px;stroke-linecap:butt;stroke-linejoin:miter;stroke-opacity:1" />
    <path
       sodipodi:nodetypes="csscssc"
       inkscape:connector-curvature="0"
       id="path4214"
       d="m 385.11082,614.89464 c 0,0 -11.73085,-1.40355 -17.12032,0.47963 -9.71213,3.3936 -18.41448,10.37526 -24.67619,18.53817 -5.24783,6.8412 -9.64749,24.00004 -9.64749,24.00004 0,0 5.71013,-15.85011 11.0466,-22.13769 6.90955,-8.14103 16.06301,-14.75656 25.95714,-18.77213 4.50735,-1.82933 14.44026,-2.10802 14.44026,-2.10802 z"
       style="fill:#ffffff;stroke:none" />
    <path
       transform="matrix(0.87788081,1.1685487,-1.2518574,0.94046711,624.91221,-397.91232)"
       sodipodi:open="true"
       sodipodi:end="6.2096771"
       sodipodi:start="0"
       d="m 476,531.61218 a 11.75,21.25 0 0 1 -11.53408,21.24641 11.75,21.25 0 0 1 -11.95798,-20.46556 11.75,21.25 0 0 1 11.0946,-21.99856 11.75,21.25 0 0 1 12.36573,19.65707"
       sodipodi:ry="21.25"
       sodipodi:rx="11.75"
       sodipodi:cy="531.61218"
       sodipodi:cx="464.25"
       id="path4216"
       style="color:#000000;display:inline;overflow:visible;visibility:visible;fill:#f2f2f2;fill-opacity:1;fill-rule:nonzero;stroke:none;stroke-width:3;marker:none;filter:url(#filter4726);enable-background:accumulate"
       sodipodi:type="arc" />
    <path
       inkscape:connector-curvature="0"
       id="path4730"
       d="m 331.1096,664.20378 -131.87731,99.80216 3.84286,-0.70189 z"
       style="fill:#ffffff;stroke:none" />
    <path
       style="fill:#ffffff;stroke:none"
       d="m 399.52388,634.07989 c 0,0 -1.91848,11.65772 -5.22791,16.30964 -5.96378,8.38303 -15.09252,14.79712 -24.67618,18.53817 -8.03192,3.1353 -25.73722,2.58298 -25.73722,2.58298 0,0 16.81324,-1.07074 24.33811,-4.44534 9.74305,-4.36935 18.64576,-11.31865 25.25758,-19.7033 3.01208,-3.8197 6.04562,-13.28215 6.04562,-13.28215 z"
       id="path4734"
       inkscape:connector-curvature="0"
       sodipodi:nodetypes="csscssc" />
  </g>
</svg>
